<?xml version="1.0" encoding="utf-8" standalone="no"?>
<!DOCTYPE svg PUBLIC "-//W3C//DTD SVG 1.1//EN"
  "http://www.w3.org/Graphics/SVG/1.1/DTD/svg11.dtd">
<svg xmlns:xlink="http://www.w3.org/1999/xlink" width="1001.480276pt" height="568.289844pt" viewBox="0 0 1001.480276 568.289844" xmlns="http://www.w3.org/2000/svg" version="1.1">
 <metadata>
  <rdf:RDF xmlns:dc="http://purl.org/dc/elements/1.1/" xmlns:cc="http://creativecommons.org/ns#" xmlns:rdf="http://www.w3.org/1999/02/22-rdf-syntax-ns#">
   <cc:Work>
    <dc:type rdf:resource="http://purl.org/dc/dcmitype/StillImage"/>
    <dc:date>2026-05-13T10:14:18.011361</dc:date>
    <dc:format>image/svg+xml</dc:format>
    <dc:creator>
     <cc:Agent>
      <dc:title>Matplotlib v3.10.9, https://matplotlib.org/</dc:title>
     </cc:Agent>
    </dc:creator>
   </cc:Work>
  </rdf:RDF>
 </metadata>
 <defs>
  <style type="text/css">*{stroke-linejoin: round; stroke-linecap: butt}</style>
 </defs>
 <g id="figure_1">
  <g id="patch_1">
   <path d="M 0 568.289844 
L 1001.480276 568.289844 
L 1001.480276 0 
L 0 0 
z
" style="fill: #ffffff"/>
  </g>
  <g id="axes_1">
   <g id="patch_2">
    <path d="M 54.096563 528.797969 
L 882.427562 528.797969 
L 882.427562 23.077969 
L 54.096563 23.077969 
z
" style="fill: #ffffff"/>
   </g>
   <g id="matplotlib.axis_1">
    <g id="xtick_1">
     <g id="line2d_1">
      <path d="M 91.747972 528.797969 
L 91.747972 23.077969 
" clip-path="url(#pa11462e5d3)" style="fill: none; stroke: #b0b0b0; stroke-opacity: 0.3; stroke-width: 0.8; stroke-linecap: square"/>
     </g>
     <g id="line2d_2">
      <defs>
       <path id="mad2c9bb1ac" d="M 0 0 
L 0 3.5 
" style="stroke: #000000; stroke-width: 0.8"/>
      </defs>
      <g>
       <use xlink:href="#mad2c9bb1ac" x="91.747972" y="528.797969" style="stroke: #000000; stroke-width: 0.8"/>
      </g>
     </g>
     <g id="text_1">
      <!-- 0.0 -->
      <g transform="translate(83.796409 543.396406) scale(0.1 -0.1)">
       <defs>
        <path id="DejaVuSans-30" d="M 2034 4250 
Q 1547 4250 1301 3770 
Q 1056 3291 1056 2328 
Q 1056 1369 1301 889 
Q 1547 409 2034 409 
Q 2525 409 2770 889 
Q 3016 1369 3016 2328 
Q 3016 3291 2770 3770 
Q 2525 4250 2034 4250 
z
M 2034 4750 
Q 2819 4750 3233 4129 
Q 3647 3509 3647 2328 
Q 3647 1150 3233 529 
Q 2819 -91 2034 -91 
Q 1250 -91 836 529 
Q 422 1150 422 2328 
Q 422 3509 836 4129 
Q 1250 4750 2034 4750 
z
" transform="scale(0.015625)"/>
        <path id="DejaVuSans-2e" d="M 684 794 
L 1344 794 
L 1344 0 
L 684 0 
L 684 794 
z
" transform="scale(0.015625)"/>
       </defs>
       <use xlink:href="#DejaVuSans-30"/>
       <use xlink:href="#DejaVuSans-2e" transform="translate(63.623047 0)"/>
       <use xlink:href="#DejaVuSans-30" transform="translate(95.410156 0)"/>
      </g>
     </g>
    </g>
    <g id="xtick_2">
     <g id="line2d_3">
      <path d="M 242.353608 528.797969 
L 242.353608 23.077969 
" clip-path="url(#pa11462e5d3)" style="fill: none; stroke: #b0b0b0; stroke-opacity: 0.3; stroke-width: 0.8; stroke-linecap: square"/>
     </g>
     <g id="line2d_4">
      <g>
       <use xlink:href="#mad2c9bb1ac" x="242.353608" y="528.797969" style="stroke: #000000; stroke-width: 0.8"/>
      </g>
     </g>
     <g id="text_2">
      <!-- 0.2 -->
      <g transform="translate(234.402045 543.396406) scale(0.1 -0.1)">
       <defs>
        <path id="DejaVuSans-32" d="M 1228 531 
L 3431 531 
L 3431 0 
L 469 0 
L 469 531 
Q 828 903 1448 1529 
Q 2069 2156 2228 2338 
Q 2531 2678 2651 2914 
Q 2772 3150 2772 3378 
Q 2772 3750 2511 3984 
Q 2250 4219 1831 4219 
Q 1534 4219 1204 4116 
Q 875 4013 500 3803 
L 500 4441 
Q 881 4594 1212 4672 
Q 1544 4750 1819 4750 
Q 2544 4750 2975 4387 
Q 3406 4025 3406 3419 
Q 3406 3131 3298 2873 
Q 3191 2616 2906 2266 
Q 2828 2175 2409 1742 
Q 1991 1309 1228 531 
z
" transform="scale(0.015625)"/>
       </defs>
       <use xlink:href="#DejaVuSans-30"/>
       <use xlink:href="#DejaVuSans-2e" transform="translate(63.623047 0)"/>
       <use xlink:href="#DejaVuSans-32" transform="translate(95.410156 0)"/>
      </g>
     </g>
    </g>
    <g id="xtick_3">
     <g id="line2d_5">
      <path d="M 392.959244 528.797969 
L 392.959244 23.077969 
" clip-path="url(#pa11462e5d3)" style="fill: none; stroke: #b0b0b0; stroke-opacity: 0.3; stroke-width: 0.8; stroke-linecap: square"/>
     </g>
     <g id="line2d_6">
      <g>
       <use xlink:href="#mad2c9bb1ac" x="392.959244" y="528.797969" style="stroke: #000000; stroke-width: 0.8"/>
      </g>
     </g>
     <g id="text_3">
      <!-- 0.4 -->
      <g transform="translate(385.007682 543.396406) scale(0.1 -0.1)">
       <defs>
        <path id="DejaVuSans-34" d="M 2419 4116 
L 825 1625 
L 2419 1625 
L 2419 4116 
z
M 2253 4666 
L 3047 4666 
L 3047 1625 
L 3713 1625 
L 3713 1100 
L 3047 1100 
L 3047 0 
L 2419 0 
L 2419 1100 
L 313 1100 
L 313 1709 
L 2253 4666 
z
" transform="scale(0.015625)"/>
       </defs>
       <use xlink:href="#DejaVuSans-30"/>
       <use xlink:href="#DejaVuSans-2e" transform="translate(63.623047 0)"/>
       <use xlink:href="#DejaVuSans-34" transform="translate(95.410156 0)"/>
      </g>
     </g>
    </g>
    <g id="xtick_4">
     <g id="line2d_7">
      <path d="M 543.564881 528.797969 
L 543.564881 23.077969 
" clip-path="url(#pa11462e5d3)" style="fill: none; stroke: #b0b0b0; stroke-opacity: 0.3; stroke-width: 0.8; stroke-linecap: square"/>
     </g>
     <g id="line2d_8">
      <g>
       <use xlink:href="#mad2c9bb1ac" x="543.564881" y="528.797969" style="stroke: #000000; stroke-width: 0.8"/>
      </g>
     </g>
     <g id="text_4">
      <!-- 0.6 -->
      <g transform="translate(535.613318 543.396406) scale(0.1 -0.1)">
       <defs>
        <path id="DejaVuSans-36" d="M 2113 2584 
Q 1688 2584 1439 2293 
Q 1191 2003 1191 1497 
Q 1191 994 1439 701 
Q 1688 409 2113 409 
Q 2538 409 2786 701 
Q 3034 994 3034 1497 
Q 3034 2003 2786 2293 
Q 2538 2584 2113 2584 
z
M 3366 4563 
L 3366 3988 
Q 3128 4100 2886 4159 
Q 2644 4219 2406 4219 
Q 1781 4219 1451 3797 
Q 1122 3375 1075 2522 
Q 1259 2794 1537 2939 
Q 1816 3084 2150 3084 
Q 2853 3084 3261 2657 
Q 3669 2231 3669 1497 
Q 3669 778 3244 343 
Q 2819 -91 2113 -91 
Q 1303 -91 875 529 
Q 447 1150 447 2328 
Q 447 3434 972 4092 
Q 1497 4750 2381 4750 
Q 2619 4750 2861 4703 
Q 3103 4656 3366 4563 
z
" transform="scale(0.015625)"/>
       </defs>
       <use xlink:href="#DejaVuSans-30"/>
       <use xlink:href="#DejaVuSans-2e" transform="translate(63.623047 0)"/>
       <use xlink:href="#DejaVuSans-36" transform="translate(95.410156 0)"/>
      </g>
     </g>
    </g>
    <g id="xtick_5">
     <g id="line2d_9">
      <path d="M 694.170517 528.797969 
L 694.170517 23.077969 
" clip-path="url(#pa11462e5d3)" style="fill: none; stroke: #b0b0b0; stroke-opacity: 0.3; stroke-width: 0.8; stroke-linecap: square"/>
     </g>
     <g id="line2d_10">
      <g>
       <use xlink:href="#mad2c9bb1ac" x="694.170517" y="528.797969" style="stroke: #000000; stroke-width: 0.8"/>
      </g>
     </g>
     <g id="text_5">
      <!-- 0.8 -->
      <g transform="translate(686.218955 543.396406) scale(0.1 -0.1)">
       <defs>
        <path id="DejaVuSans-38" d="M 2034 2216 
Q 1584 2216 1326 1975 
Q 1069 1734 1069 1313 
Q 1069 891 1326 650 
Q 1584 409 2034 409 
Q 2484 409 2743 651 
Q 3003 894 3003 1313 
Q 3003 1734 2745 1975 
Q 2488 2216 2034 2216 
z
M 1403 2484 
Q 997 2584 770 2862 
Q 544 3141 544 3541 
Q 544 4100 942 4425 
Q 1341 4750 2034 4750 
Q 2731 4750 3128 4425 
Q 3525 4100 3525 3541 
Q 3525 3141 3298 2862 
Q 3072 2584 2669 2484 
Q 3125 2378 3379 2068 
Q 3634 1759 3634 1313 
Q 3634 634 3220 271 
Q 2806 -91 2034 -91 
Q 1263 -91 848 271 
Q 434 634 434 1313 
Q 434 1759 690 2068 
Q 947 2378 1403 2484 
z
M 1172 3481 
Q 1172 3119 1398 2916 
Q 1625 2713 2034 2713 
Q 2441 2713 2670 2916 
Q 2900 3119 2900 3481 
Q 2900 3844 2670 4047 
Q 2441 4250 2034 4250 
Q 1625 4250 1398 4047 
Q 1172 3844 1172 3481 
z
" transform="scale(0.015625)"/>
       </defs>
       <use xlink:href="#DejaVuSans-30"/>
       <use xlink:href="#DejaVuSans-2e" transform="translate(63.623047 0)"/>
       <use xlink:href="#DejaVuSans-38" transform="translate(95.410156 0)"/>
      </g>
     </g>
    </g>
    <g id="xtick_6">
     <g id="line2d_11">
      <path d="M 844.776153 528.797969 
L 844.776153 23.077969 
" clip-path="url(#pa11462e5d3)" style="fill: none; stroke: #b0b0b0; stroke-opacity: 0.3; stroke-width: 0.8; stroke-linecap: square"/>
     </g>
     <g id="line2d_12">
      <g>
       <use xlink:href="#mad2c9bb1ac" x="844.776153" y="528.797969" style="stroke: #000000; stroke-width: 0.8"/>
      </g>
     </g>
     <g id="text_6">
      <!-- 1.0 -->
      <g transform="translate(836.824591 543.396406) scale(0.1 -0.1)">
       <defs>
        <path id="DejaVuSans-31" d="M 794 531 
L 1825 531 
L 1825 4091 
L 703 3866 
L 703 4441 
L 1819 4666 
L 2450 4666 
L 2450 531 
L 3481 531 
L 3481 0 
L 794 0 
L 794 531 
z
" transform="scale(0.015625)"/>
       </defs>
       <use xlink:href="#DejaVuSans-31"/>
       <use xlink:href="#DejaVuSans-2e" transform="translate(63.623047 0)"/>
       <use xlink:href="#DejaVuSans-30" transform="translate(95.410156 0)"/>
      </g>
     </g>
    </g>
    <g id="text_7">
     <!-- Vertical Position y (m) -->
     <g transform="translate(402.647375 558.594219) scale(0.12 -0.12)">
      <defs>
       <path id="DejaVuSans-56" d="M 1831 0 
L 50 4666 
L 709 4666 
L 2188 738 
L 3669 4666 
L 4325 4666 
L 2547 0 
L 1831 0 
z
" transform="scale(0.015625)"/>
       <path id="DejaVuSans-65" d="M 3597 1894 
L 3597 1613 
L 953 1613 
Q 991 1019 1311 708 
Q 1631 397 2203 397 
Q 2534 397 2845 478 
Q 3156 559 3463 722 
L 3463 178 
Q 3153 47 2828 -22 
Q 2503 -91 2169 -91 
Q 1331 -91 842 396 
Q 353 884 353 1716 
Q 353 2575 817 3079 
Q 1281 3584 2069 3584 
Q 2775 3584 3186 3129 
Q 3597 2675 3597 1894 
z
M 3022 2063 
Q 3016 2534 2758 2815 
Q 2500 3097 2075 3097 
Q 1594 3097 1305 2825 
Q 1016 2553 972 2059 
L 3022 2063 
z
" transform="scale(0.015625)"/>
       <path id="DejaVuSans-72" d="M 2631 2963 
Q 2534 3019 2420 3045 
Q 2306 3072 2169 3072 
Q 1681 3072 1420 2755 
Q 1159 2438 1159 1844 
L 1159 0 
L 581 0 
L 581 3500 
L 1159 3500 
L 1159 2956 
Q 1341 3275 1631 3429 
Q 1922 3584 2338 3584 
Q 2397 3584 2469 3576 
Q 2541 3569 2628 3553 
L 2631 2963 
z
" transform="scale(0.015625)"/>
       <path id="DejaVuSans-74" d="M 1172 4494 
L 1172 3500 
L 2356 3500 
L 2356 3053 
L 1172 3053 
L 1172 1153 
Q 1172 725 1289 603 
Q 1406 481 1766 481 
L 2356 481 
L 2356 0 
L 1766 0 
Q 1100 0 847 248 
Q 594 497 594 1153 
L 594 3053 
L 172 3053 
L 172 3500 
L 594 3500 
L 594 4494 
L 1172 4494 
z
" transform="scale(0.015625)"/>
       <path id="DejaVuSans-69" d="M 603 3500 
L 1178 3500 
L 1178 0 
L 603 0 
L 603 3500 
z
M 603 4863 
L 1178 4863 
L 1178 4134 
L 603 4134 
L 603 4863 
z
" transform="scale(0.015625)"/>
       <path id="DejaVuSans-63" d="M 3122 3366 
L 3122 2828 
Q 2878 2963 2633 3030 
Q 2388 3097 2138 3097 
Q 1578 3097 1268 2742 
Q 959 2388 959 1747 
Q 959 1106 1268 751 
Q 1578 397 2138 397 
Q 2388 397 2633 464 
Q 2878 531 3122 666 
L 3122 134 
Q 2881 22 2623 -34 
Q 2366 -91 2075 -91 
Q 1284 -91 818 406 
Q 353 903 353 1747 
Q 353 2603 823 3093 
Q 1294 3584 2113 3584 
Q 2378 3584 2631 3529 
Q 2884 3475 3122 3366 
z
" transform="scale(0.015625)"/>
       <path id="DejaVuSans-61" d="M 2194 1759 
Q 1497 1759 1228 1600 
Q 959 1441 959 1056 
Q 959 750 1161 570 
Q 1363 391 1709 391 
Q 2188 391 2477 730 
Q 2766 1069 2766 1631 
L 2766 1759 
L 2194 1759 
z
M 3341 1997 
L 3341 0 
L 2766 0 
L 2766 531 
Q 2569 213 2275 61 
Q 1981 -91 1556 -91 
Q 1019 -91 701 211 
Q 384 513 384 1019 
Q 384 1609 779 1909 
Q 1175 2209 1959 2209 
L 2766 2209 
L 2766 2266 
Q 2766 2663 2505 2880 
Q 2244 3097 1772 3097 
Q 1472 3097 1187 3025 
Q 903 2953 641 2809 
L 641 3341 
Q 956 3463 1253 3523 
Q 1550 3584 1831 3584 
Q 2591 3584 2966 3190 
Q 3341 2797 3341 1997 
z
" transform="scale(0.015625)"/>
       <path id="DejaVuSans-6c" d="M 603 4863 
L 1178 4863 
L 1178 0 
L 603 0 
L 603 4863 
z
" transform="scale(0.015625)"/>
       <path id="DejaVuSans-20" transform="scale(0.015625)"/>
       <path id="DejaVuSans-50" d="M 1259 4147 
L 1259 2394 
L 2053 2394 
Q 2494 2394 2734 2622 
Q 2975 2850 2975 3272 
Q 2975 3691 2734 3919 
Q 2494 4147 2053 4147 
L 1259 4147 
z
M 628 4666 
L 2053 4666 
Q 2838 4666 3239 4311 
Q 3641 3956 3641 3272 
Q 3641 2581 3239 2228 
Q 2838 1875 2053 1875 
L 1259 1875 
L 1259 0 
L 628 0 
L 628 4666 
z
" transform="scale(0.015625)"/>
       <path id="DejaVuSans-6f" d="M 1959 3097 
Q 1497 3097 1228 2736 
Q 959 2375 959 1747 
Q 959 1119 1226 758 
Q 1494 397 1959 397 
Q 2419 397 2687 759 
Q 2956 1122 2956 1747 
Q 2956 2369 2687 2733 
Q 2419 3097 1959 3097 
z
M 1959 3584 
Q 2709 3584 3137 3096 
Q 3566 2609 3566 1747 
Q 3566 888 3137 398 
Q 2709 -91 1959 -91 
Q 1206 -91 779 398 
Q 353 888 353 1747 
Q 353 2609 779 3096 
Q 1206 3584 1959 3584 
z
" transform="scale(0.015625)"/>
       <path id="DejaVuSans-73" d="M 2834 3397 
L 2834 2853 
Q 2591 2978 2328 3040 
Q 2066 3103 1784 3103 
Q 1356 3103 1142 2972 
Q 928 2841 928 2578 
Q 928 2378 1081 2264 
Q 1234 2150 1697 2047 
L 1894 2003 
Q 2506 1872 2764 1633 
Q 3022 1394 3022 966 
Q 3022 478 2636 193 
Q 2250 -91 1575 -91 
Q 1294 -91 989 -36 
Q 684 19 347 128 
L 347 722 
Q 666 556 975 473 
Q 1284 391 1588 391 
Q 1994 391 2212 530 
Q 2431 669 2431 922 
Q 2431 1156 2273 1281 
Q 2116 1406 1581 1522 
L 1381 1569 
Q 847 1681 609 1914 
Q 372 2147 372 2553 
Q 372 3047 722 3315 
Q 1072 3584 1716 3584 
Q 2034 3584 2315 3537 
Q 2597 3491 2834 3397 
z
" transform="scale(0.015625)"/>
       <path id="DejaVuSans-6e" d="M 3513 2113 
L 3513 0 
L 2938 0 
L 2938 2094 
Q 2938 2591 2744 2837 
Q 2550 3084 2163 3084 
Q 1697 3084 1428 2787 
Q 1159 2491 1159 1978 
L 1159 0 
L 581 0 
L 581 3500 
L 1159 3500 
L 1159 2956 
Q 1366 3272 1645 3428 
Q 1925 3584 2291 3584 
Q 2894 3584 3203 3211 
Q 3513 2838 3513 2113 
z
" transform="scale(0.015625)"/>
       <path id="DejaVuSans-79" d="M 2059 -325 
Q 1816 -950 1584 -1140 
Q 1353 -1331 966 -1331 
L 506 -1331 
L 506 -850 
L 844 -850 
Q 1081 -850 1212 -737 
Q 1344 -625 1503 -206 
L 1606 56 
L 191 3500 
L 800 3500 
L 1894 763 
L 2988 3500 
L 3597 3500 
L 2059 -325 
z
" transform="scale(0.015625)"/>
       <path id="DejaVuSans-28" d="M 1984 4856 
Q 1566 4138 1362 3434 
Q 1159 2731 1159 2009 
Q 1159 1288 1364 580 
Q 1569 -128 1984 -844 
L 1484 -844 
Q 1016 -109 783 600 
Q 550 1309 550 2009 
Q 550 2706 781 3412 
Q 1013 4119 1484 4856 
L 1984 4856 
z
" transform="scale(0.015625)"/>
       <path id="DejaVuSans-6d" d="M 3328 2828 
Q 3544 3216 3844 3400 
Q 4144 3584 4550 3584 
Q 5097 3584 5394 3201 
Q 5691 2819 5691 2113 
L 5691 0 
L 5113 0 
L 5113 2094 
Q 5113 2597 4934 2840 
Q 4756 3084 4391 3084 
Q 3944 3084 3684 2787 
Q 3425 2491 3425 1978 
L 3425 0 
L 2847 0 
L 2847 2094 
Q 2847 2600 2669 2842 
Q 2491 3084 2119 3084 
Q 1678 3084 1418 2786 
Q 1159 2488 1159 1978 
L 1159 0 
L 581 0 
L 581 3500 
L 1159 3500 
L 1159 2956 
Q 1356 3278 1631 3431 
Q 1906 3584 2284 3584 
Q 2666 3584 2933 3390 
Q 3200 3197 3328 2828 
z
" transform="scale(0.015625)"/>
       <path id="DejaVuSans-29" d="M 513 4856 
L 1013 4856 
Q 1481 4119 1714 3412 
Q 1947 2706 1947 2009 
Q 1947 1309 1714 600 
Q 1481 -109 1013 -844 
L 513 -844 
Q 928 -128 1133 580 
Q 1338 1288 1338 2009 
Q 1338 2731 1133 3434 
Q 928 4138 513 4856 
z
" transform="scale(0.015625)"/>
      </defs>
      <use xlink:href="#DejaVuSans-56"/>
      <use xlink:href="#DejaVuSans-65" transform="translate(60.658203 0)"/>
      <use xlink:href="#DejaVuSans-72" transform="translate(122.181641 0)"/>
      <use xlink:href="#DejaVuSans-74" transform="translate(163.294922 0)"/>
      <use xlink:href="#DejaVuSans-69" transform="translate(202.503906 0)"/>
      <use xlink:href="#DejaVuSans-63" transform="translate(230.287109 0)"/>
      <use xlink:href="#DejaVuSans-61" transform="translate(285.267578 0)"/>
      <use xlink:href="#DejaVuSans-6c" transform="translate(346.546875 0)"/>
      <use xlink:href="#DejaVuSans-20" transform="translate(374.330078 0)"/>
      <use xlink:href="#DejaVuSans-50" transform="translate(406.117188 0)"/>
      <use xlink:href="#DejaVuSans-6f" transform="translate(462.794922 0)"/>
      <use xlink:href="#DejaVuSans-73" transform="translate(523.976562 0)"/>
      <use xlink:href="#DejaVuSans-69" transform="translate(576.076172 0)"/>
      <use xlink:href="#DejaVuSans-74" transform="translate(603.859375 0)"/>
      <use xlink:href="#DejaVuSans-69" transform="translate(643.068359 0)"/>
      <use xlink:href="#DejaVuSans-6f" transform="translate(670.851562 0)"/>
      <use xlink:href="#DejaVuSans-6e" transform="translate(732.033203 0)"/>
      <use xlink:href="#DejaVuSans-20" transform="translate(795.412109 0)"/>
      <use xlink:href="#DejaVuSans-79" transform="translate(827.199219 0)"/>
      <use xlink:href="#DejaVuSans-20" transform="translate(886.378906 0)"/>
      <use xlink:href="#DejaVuSans-28" transform="translate(918.166016 0)"/>
      <use xlink:href="#DejaVuSans-6d" transform="translate(957.179688 0)"/>
      <use xlink:href="#DejaVuSans-29" transform="translate(1054.591797 0)"/>
     </g>
    </g>
   </g>
   <g id="matplotlib.axis_2">
    <g id="ytick_1">
     <g id="line2d_13">
      <path d="M 54.096563 505.810696 
L 882.427562 505.810696 
" clip-path="url(#pa11462e5d3)" style="fill: none; stroke: #b0b0b0; stroke-opacity: 0.3; stroke-width: 0.8; stroke-linecap: square"/>
     </g>
     <g id="line2d_14">
      <defs>
       <path id="mbd6f792821" d="M 0 0 
L -3.5 0 
" style="stroke: #000000; stroke-width: 0.8"/>
      </defs>
      <g>
       <use xlink:href="#mbd6f792821" x="54.096563" y="505.810696" style="stroke: #000000; stroke-width: 0.8"/>
      </g>
     </g>
     <g id="text_8">
      <!-- −1.0 -->
      <g transform="translate(22.81375 509.609915) scale(0.1 -0.1)">
       <defs>
        <path id="DejaVuSans-2212" d="M 678 2272 
L 4684 2272 
L 4684 1741 
L 678 1741 
L 678 2272 
z
" transform="scale(0.015625)"/>
       </defs>
       <use xlink:href="#DejaVuSans-2212"/>
       <use xlink:href="#DejaVuSans-31" transform="translate(83.789062 0)"/>
       <use xlink:href="#DejaVuSans-2e" transform="translate(147.412109 0)"/>
       <use xlink:href="#DejaVuSans-30" transform="translate(179.199219 0)"/>
      </g>
     </g>
    </g>
    <g id="ytick_2">
     <g id="line2d_15">
      <path d="M 54.096563 413.861605 
L 882.427562 413.861605 
" clip-path="url(#pa11462e5d3)" style="fill: none; stroke: #b0b0b0; stroke-opacity: 0.3; stroke-width: 0.8; stroke-linecap: square"/>
     </g>
     <g id="line2d_16">
      <g>
       <use xlink:href="#mbd6f792821" x="54.096563" y="413.861605" style="stroke: #000000; stroke-width: 0.8"/>
      </g>
     </g>
     <g id="text_9">
      <!-- −0.8 -->
      <g transform="translate(22.81375 417.660824) scale(0.1 -0.1)">
       <use xlink:href="#DejaVuSans-2212"/>
       <use xlink:href="#DejaVuSans-30" transform="translate(83.789062 0)"/>
       <use xlink:href="#DejaVuSans-2e" transform="translate(147.412109 0)"/>
       <use xlink:href="#DejaVuSans-38" transform="translate(179.199219 0)"/>
      </g>
     </g>
    </g>
    <g id="ytick_3">
     <g id="line2d_17">
      <path d="M 54.096563 321.912514 
L 882.427562 321.912514 
" clip-path="url(#pa11462e5d3)" style="fill: none; stroke: #b0b0b0; stroke-opacity: 0.3; stroke-width: 0.8; stroke-linecap: square"/>
     </g>
     <g id="line2d_18">
      <g>
       <use xlink:href="#mbd6f792821" x="54.096563" y="321.912514" style="stroke: #000000; stroke-width: 0.8"/>
      </g>
     </g>
     <g id="text_10">
      <!-- −0.6 -->
      <g transform="translate(22.81375 325.711733) scale(0.1 -0.1)">
       <use xlink:href="#DejaVuSans-2212"/>
       <use xlink:href="#DejaVuSans-30" transform="translate(83.789062 0)"/>
       <use xlink:href="#DejaVuSans-2e" transform="translate(147.412109 0)"/>
       <use xlink:href="#DejaVuSans-36" transform="translate(179.199219 0)"/>
      </g>
     </g>
    </g>
    <g id="ytick_4">
     <g id="line2d_19">
      <path d="M 54.096563 229.963423 
L 882.427562 229.963423 
" clip-path="url(#pa11462e5d3)" style="fill: none; stroke: #b0b0b0; stroke-opacity: 0.3; stroke-width: 0.8; stroke-linecap: square"/>
     </g>
     <g id="line2d_20">
      <g>
       <use xlink:href="#mbd6f792821" x="54.096563" y="229.963423" style="stroke: #000000; stroke-width: 0.8"/>
      </g>
     </g>
     <g id="text_11">
      <!-- −0.4 -->
      <g transform="translate(22.81375 233.762642) scale(0.1 -0.1)">
       <use xlink:href="#DejaVuSans-2212"/>
       <use xlink:href="#DejaVuSans-30" transform="translate(83.789062 0)"/>
       <use xlink:href="#DejaVuSans-2e" transform="translate(147.412109 0)"/>
       <use xlink:href="#DejaVuSans-34" transform="translate(179.199219 0)"/>
      </g>
     </g>
    </g>
    <g id="ytick_5">
     <g id="line2d_21">
      <path d="M 54.096563 138.014332 
L 882.427562 138.014332 
" clip-path="url(#pa11462e5d3)" style="fill: none; stroke: #b0b0b0; stroke-opacity: 0.3; stroke-width: 0.8; stroke-linecap: square"/>
     </g>
     <g id="line2d_22">
      <g>
       <use xlink:href="#mbd6f792821" x="54.096563" y="138.014332" style="stroke: #000000; stroke-width: 0.8"/>
      </g>
     </g>
     <g id="text_12">
      <!-- −0.2 -->
      <g transform="translate(22.81375 141.813551) scale(0.1 -0.1)">
       <use xlink:href="#DejaVuSans-2212"/>
       <use xlink:href="#DejaVuSans-30" transform="translate(83.789062 0)"/>
       <use xlink:href="#DejaVuSans-2e" transform="translate(147.412109 0)"/>
       <use xlink:href="#DejaVuSans-32" transform="translate(179.199219 0)"/>
      </g>
     </g>
    </g>
    <g id="ytick_6">
     <g id="line2d_23">
      <path d="M 54.096563 46.065241 
L 882.427562 46.065241 
" clip-path="url(#pa11462e5d3)" style="fill: none; stroke: #b0b0b0; stroke-opacity: 0.3; stroke-width: 0.8; stroke-linecap: square"/>
     </g>
     <g id="line2d_24">
      <g>
       <use xlink:href="#mbd6f792821" x="54.096563" y="46.065241" style="stroke: #000000; stroke-width: 0.8"/>
      </g>
     </g>
     <g id="text_13">
      <!-- 0.0 -->
      <g transform="translate(31.193438 49.86446) scale(0.1 -0.1)">
       <use xlink:href="#DejaVuSans-30"/>
       <use xlink:href="#DejaVuSans-2e" transform="translate(63.623047 0)"/>
       <use xlink:href="#DejaVuSans-30" transform="translate(95.410156 0)"/>
      </g>
     </g>
    </g>
    <g id="text_14">
     <!-- Pressure Head h (m) -->
     <g transform="translate(16.318125 337.290781) rotate(-90) scale(0.12 -0.12)">
      <defs>
       <path id="DejaVuSans-75" d="M 544 1381 
L 544 3500 
L 1119 3500 
L 1119 1403 
Q 1119 906 1312 657 
Q 1506 409 1894 409 
Q 2359 409 2629 706 
Q 2900 1003 2900 1516 
L 2900 3500 
L 3475 3500 
L 3475 0 
L 2900 0 
L 2900 538 
Q 2691 219 2414 64 
Q 2138 -91 1772 -91 
Q 1169 -91 856 284 
Q 544 659 544 1381 
z
M 1991 3584 
L 1991 3584 
z
" transform="scale(0.015625)"/>
       <path id="DejaVuSans-48" d="M 628 4666 
L 1259 4666 
L 1259 2753 
L 3553 2753 
L 3553 4666 
L 4184 4666 
L 4184 0 
L 3553 0 
L 3553 2222 
L 1259 2222 
L 1259 0 
L 628 0 
L 628 4666 
z
" transform="scale(0.015625)"/>
       <path id="DejaVuSans-64" d="M 2906 2969 
L 2906 4863 
L 3481 4863 
L 3481 0 
L 2906 0 
L 2906 525 
Q 2725 213 2448 61 
Q 2172 -91 1784 -91 
Q 1150 -91 751 415 
Q 353 922 353 1747 
Q 353 2572 751 3078 
Q 1150 3584 1784 3584 
Q 2172 3584 2448 3432 
Q 2725 3281 2906 2969 
z
M 947 1747 
Q 947 1113 1208 752 
Q 1469 391 1925 391 
Q 2381 391 2643 752 
Q 2906 1113 2906 1747 
Q 2906 2381 2643 2742 
Q 2381 3103 1925 3103 
Q 1469 3103 1208 2742 
Q 947 2381 947 1747 
z
" transform="scale(0.015625)"/>
       <path id="DejaVuSans-68" d="M 3513 2113 
L 3513 0 
L 2938 0 
L 2938 2094 
Q 2938 2591 2744 2837 
Q 2550 3084 2163 3084 
Q 1697 3084 1428 2787 
Q 1159 2491 1159 1978 
L 1159 0 
L 581 0 
L 581 4863 
L 1159 4863 
L 1159 2956 
Q 1366 3272 1645 3428 
Q 1925 3584 2291 3584 
Q 2894 3584 3203 3211 
Q 3513 2838 3513 2113 
z
" transform="scale(0.015625)"/>
      </defs>
      <use xlink:href="#DejaVuSans-50"/>
      <use xlink:href="#DejaVuSans-72" transform="translate(58.552734 0)"/>
      <use xlink:href="#DejaVuSans-65" transform="translate(97.416016 0)"/>
      <use xlink:href="#DejaVuSans-73" transform="translate(158.939453 0)"/>
      <use xlink:href="#DejaVuSans-73" transform="translate(211.039062 0)"/>
      <use xlink:href="#DejaVuSans-75" transform="translate(263.138672 0)"/>
      <use xlink:href="#DejaVuSans-72" transform="translate(326.517578 0)"/>
      <use xlink:href="#DejaVuSans-65" transform="translate(365.380859 0)"/>
      <use xlink:href="#DejaVuSans-20" transform="translate(426.904297 0)"/>
      <use xlink:href="#DejaVuSans-48" transform="translate(458.691406 0)"/>
      <use xlink:href="#DejaVuSans-65" transform="translate(533.886719 0)"/>
      <use xlink:href="#DejaVuSans-61" transform="translate(595.410156 0)"/>
      <use xlink:href="#DejaVuSans-64" transform="translate(656.689453 0)"/>
      <use xlink:href="#DejaVuSans-20" transform="translate(720.166016 0)"/>
      <use xlink:href="#DejaVuSans-68" transform="translate(751.953125 0)"/>
      <use xlink:href="#DejaVuSans-20" transform="translate(815.332031 0)"/>
      <use xlink:href="#DejaVuSans-28" transform="translate(847.119141 0)"/>
      <use xlink:href="#DejaVuSans-6d" transform="translate(886.132812 0)"/>
      <use xlink:href="#DejaVuSans-29" transform="translate(983.544922 0)"/>
     </g>
    </g>
   </g>
   <g id="line2d_25">
    <path d="M 91.747972 505.810696 
L 99.354317 266.859305 
L 106.960662 280.258659 
L 114.567007 273.320492 
L 122.173353 277.631955 
L 129.779698 274.847182 
L 137.386043 276.593529 
L 144.992388 275.614056 
L 152.598734 276.002236 
L 160.205079 276.078532 
L 167.811424 275.637195 
L 175.41777 276.360906 
L 183.024115 275.426286 
L 190.63046 276.50857 
L 198.236805 275.335224 
L 205.843151 276.548886 
L 213.449496 275.340129 
L 221.055841 276.504202 
L 228.662186 275.419111 
L 236.268532 276.396493 
L 243.874877 275.549898 
L 251.481222 276.248311 
L 259.087568 275.709824 
L 266.693913 276.082173 
L 274.300258 275.876853 
L 281.906603 275.919272 
L 289.512949 276.031001 
L 297.119294 275.77802 
L 304.725639 276.155771 
L 312.331984 275.672696 
L 319.93833 276.239356 
L 327.544675 275.612436 
L 335.15102 276.27543 
L 342.757366 275.600684 
L 350.363711 276.263428 
L 357.970056 275.635198 
L 365.576401 276.208267 
L 373.182747 275.708589 
L 380.789092 276.11954 
L 388.395437 275.809371 
L 396.001782 276.01027 
L 403.608128 275.923382 
L 411.214473 275.895337 
L 418.820818 276.035456 
L 426.427164 275.789757 
L 434.033509 276.131155 
L 441.639854 275.706981 
L 449.246199 276.198393 
L 456.852545 275.657393 
L 464.45889 276.22878 
L 472.065235 275.647158 
L 479.67158 276.218544 
L 487.277926 275.677544 
L 494.884271 276.168956 
L 502.490616 275.744782 
L 510.096961 276.08618 
L 517.703307 275.840482 
L 525.309652 275.9806 
L 532.915997 275.952556 
L 540.522343 275.865667 
L 548.128688 276.066567 
L 555.735033 275.756397 
L 563.341378 276.167348 
L 570.947724 275.667671 
L 578.554069 276.24074 
L 586.160414 275.612509 
L 593.766759 276.275253 
L 601.373105 275.600507 
L 608.97945 276.263502 
L 616.585795 275.636582 
L 624.192141 276.203241 
L 631.798486 275.720166 
L 639.404831 276.097918 
L 647.011176 275.844936 
L 654.617522 275.956666 
L 662.223867 275.999084 
L 669.830212 275.793765 
L 677.436557 276.166114 
L 685.042903 275.627626 
L 692.649248 276.32604 
L 700.255593 275.479445 
L 707.861939 276.456827 
L 715.468284 275.371736 
L 723.074629 276.535809 
L 730.680974 275.327051 
L 738.28732 276.540713 
L 745.893665 275.367368 
L 753.50001 276.449652 
L 761.106355 275.515031 
L 768.712701 276.238743 
L 776.319046 275.797406 
L 783.925391 275.873701 
L 791.531737 276.261881 
L 799.138082 275.282408 
L 806.744427 277.028756 
L 814.350772 274.243982 
L 821.957118 278.555446 
L 829.563463 271.617278 
L 837.169808 285.016633 
L 844.776153 46.065241 
" clip-path="url(#pa11462e5d3)" style="fill: none; stroke: #00ffff; stroke-opacity: 0.7; stroke-width: 2; stroke-linecap: square"/>
   </g>
   <g id="line2d_26">
    <path d="M 91.747972 505.810696 
L 99.354317 454.565529 
L 106.960662 407.242899 
L 114.567007 366.887593 
L 122.173353 335.108028 
L 129.779698 311.997476 
L 137.386043 296.477638 
L 144.992388 286.853147 
L 152.598734 281.341501 
L 160.205079 278.426783 
L 167.811424 277.003397 
L 175.41777 276.36151 
L 183.024115 276.094208 
L 190.63046 275.991418 
L 198.236805 275.954917 
L 205.843151 275.942948 
L 213.449496 275.939323 
L 221.055841 275.93831 
L 228.662186 275.938048 
L 236.268532 275.937986 
L 243.874877 275.937972 
L 251.481222 275.937969 
L 259.087568 275.937969 
L 266.693913 275.937969 
L 274.300258 275.937969 
L 281.906603 275.937969 
L 289.512949 275.937969 
L 297.119294 275.937969 
L 304.725639 275.937969 
L 312.331984 275.937969 
L 319.93833 275.937969 
L 327.544675 275.937969 
L 335.15102 275.937969 
L 342.757366 275.937969 
L 350.363711 275.937969 
L 357.970056 275.937969 
L 365.576401 275.937969 
L 373.182747 275.937969 
L 380.789092 275.937969 
L 388.395437 275.937969 
L 396.001782 275.937969 
L 403.608128 275.937969 
L 411.214473 275.937969 
L 418.820818 275.937969 
L 426.427164 275.937969 
L 434.033509 275.937969 
L 441.639854 275.937969 
L 449.246199 275.937969 
L 456.852545 275.937969 
L 464.45889 275.937969 
L 472.065235 275.937969 
L 479.67158 275.937969 
L 487.277926 275.937969 
L 494.884271 275.937969 
L 502.490616 275.937969 
L 510.096961 275.937969 
L 517.703307 275.937969 
L 525.309652 275.937969 
L 532.915997 275.937969 
L 540.522343 275.937969 
L 548.128688 275.937969 
L 555.735033 275.937969 
L 563.341378 275.937969 
L 570.947724 275.937969 
L 578.554069 275.937969 
L 586.160414 275.937969 
L 593.766759 275.937969 
L 601.373105 275.937969 
L 608.97945 275.937969 
L 616.585795 275.937969 
L 624.192141 275.937969 
L 631.798486 275.937969 
L 639.404831 275.937969 
L 647.011176 275.937969 
L 654.617522 275.937969 
L 662.223867 275.937969 
L 669.830212 275.937969 
L 677.436557 275.937969 
L 685.042903 275.937968 
L 692.649248 275.937965 
L 700.255593 275.937952 
L 707.861939 275.937889 
L 715.468284 275.937628 
L 723.074629 275.936614 
L 730.680974 275.93299 
L 738.28732 275.921021 
L 745.893665 275.884519 
L 753.50001 275.781729 
L 761.106355 275.514427 
L 768.712701 274.872541 
L 776.319046 273.449155 
L 783.925391 270.534436 
L 791.531737 265.022791 
L 799.138082 255.398299 
L 806.744427 239.878461 
L 814.350772 216.767909 
L 821.957118 184.988345 
L 829.563463 144.633038 
L 837.169808 97.310408 
L 844.776153 46.065241 
" clip-path="url(#pa11462e5d3)" style="fill: none; stroke: #17e8ff; stroke-opacity: 0.7; stroke-width: 2; stroke-linecap: square"/>
   </g>
   <g id="line2d_27">
    <path d="M 91.747972 505.810696 
L 99.354317 469.333953 
L 106.960662 434.285719 
L 114.567007 401.928866 
L 122.173353 373.22658 
L 129.779698 348.763185 
L 137.386043 328.72922 
L 144.992388 312.965196 
L 152.598734 301.046818 
L 160.205079 292.38883 
L 167.811424 286.345635 
L 175.41777 282.292736 
L 183.024115 279.681087 
L 190.63046 278.064076 
L 198.236805 277.102108 
L 205.843151 276.552241 
L 213.449496 276.250243 
L 221.055841 276.090876 
L 228.662186 276.01007 
L 236.268532 275.970703 
L 243.874877 275.952275 
L 251.481222 275.943987 
L 259.087568 275.940405 
L 266.693913 275.938918 
L 274.300258 275.938324 
L 281.906603 275.938097 
L 289.512949 275.938013 
L 297.119294 275.937984 
L 304.725639 275.937974 
L 312.331984 275.93797 
L 319.93833 275.937969 
L 327.544675 275.937969 
L 335.15102 275.937969 
L 342.757366 275.937969 
L 350.363711 275.937969 
L 357.970056 275.937969 
L 365.576401 275.937969 
L 373.182747 275.937969 
L 380.789092 275.937969 
L 388.395437 275.937969 
L 396.001782 275.937969 
L 403.608128 275.937969 
L 411.214473 275.937969 
L 418.820818 275.937969 
L 426.427164 275.937969 
L 434.033509 275.937969 
L 441.639854 275.937969 
L 449.246199 275.937969 
L 456.852545 275.937969 
L 464.45889 275.937969 
L 472.065235 275.937969 
L 479.67158 275.937969 
L 487.277926 275.937969 
L 494.884271 275.937969 
L 502.490616 275.937969 
L 510.096961 275.937969 
L 517.703307 275.937969 
L 525.309652 275.937969 
L 532.915997 275.937969 
L 540.522343 275.937969 
L 548.128688 275.937969 
L 555.735033 275.937969 
L 563.341378 275.937969 
L 570.947724 275.937969 
L 578.554069 275.937969 
L 586.160414 275.937969 
L 593.766759 275.937969 
L 601.373105 275.937969 
L 608.97945 275.937969 
L 616.585795 275.937968 
L 624.192141 275.937967 
L 631.798486 275.937964 
L 639.404831 275.937954 
L 647.011176 275.937924 
L 654.617522 275.93784 
L 662.223867 275.937613 
L 669.830212 275.93702 
L 677.436557 275.935532 
L 685.042903 275.931951 
L 692.649248 275.923662 
L 700.255593 275.905234 
L 707.861939 275.865867 
L 715.468284 275.785061 
L 723.074629 275.625694 
L 730.680974 275.323697 
L 738.28732 274.77383 
L 745.893665 273.811861 
L 753.50001 272.19485 
L 761.106355 269.583202 
L 768.712701 265.530302 
L 776.319046 259.487107 
L 783.925391 250.829119 
L 791.531737 238.910742 
L 799.138082 223.146718 
L 806.744427 203.112752 
L 814.350772 178.649358 
L 821.957118 149.947072 
L 829.563463 117.590218 
L 837.169808 82.541985 
L 844.776153 46.065241 
" clip-path="url(#pa11462e5d3)" style="fill: none; stroke: #2ed1ff; stroke-opacity: 0.7; stroke-width: 2; stroke-linecap: square"/>
   </g>
   <g id="line2d_28">
    <path d="M 91.747972 505.810696 
L 99.354317 475.961459 
L 106.960662 446.89757 
L 114.567007 419.342931 
L 122.173353 393.906499 
L 129.779698 371.043239 
L 137.386043 351.033539 
L 144.992388 333.982003 
L 152.598734 319.833619 
L 160.205079 308.402976 
L 167.811424 299.411005 
L 175.41777 292.523538 
L 183.024115 287.386833 
L 190.63046 283.656652 
L 198.236805 281.019132 
L 205.843151 279.203274 
L 213.449496 277.986 
L 221.055841 277.191462 
L 228.662186 276.686496 
L 236.268532 276.374011 
L 243.874877 276.185726 
L 251.481222 276.075262 
L 259.087568 276.012158 
L 266.693913 275.977059 
L 274.300258 275.95805 
L 281.906603 275.948025 
L 289.512949 275.942878 
L 297.119294 275.940305 
L 304.725639 275.939052 
L 312.331984 275.938459 
L 319.93833 275.938185 
L 327.544675 275.938061 
L 335.15102 275.938008 
L 342.757366 275.937985 
L 350.363711 275.937975 
L 357.970056 275.937971 
L 365.576401 275.93797 
L 373.182747 275.937969 
L 380.789092 275.937969 
L 388.395437 275.937969 
L 396.001782 275.937969 
L 403.608128 275.937969 
L 411.214473 275.937969 
L 418.820818 275.937969 
L 426.427164 275.937969 
L 434.033509 275.937969 
L 441.639854 275.937969 
L 449.246199 275.937969 
L 456.852545 275.937969 
L 464.45889 275.937969 
L 472.065235 275.937969 
L 479.67158 275.937969 
L 487.277926 275.937969 
L 494.884271 275.937969 
L 502.490616 275.937969 
L 510.096961 275.937969 
L 517.703307 275.937969 
L 525.309652 275.937969 
L 532.915997 275.937969 
L 540.522343 275.937969 
L 548.128688 275.937969 
L 555.735033 275.937969 
L 563.341378 275.937968 
L 570.947724 275.937968 
L 578.554069 275.937966 
L 586.160414 275.937962 
L 593.766759 275.937953 
L 601.373105 275.93793 
L 608.97945 275.937876 
L 616.585795 275.937753 
L 624.192141 275.937479 
L 631.798486 275.936885 
L 639.404831 275.935633 
L 647.011176 275.933059 
L 654.617522 275.927912 
L 662.223867 275.917888 
L 669.830212 275.898879 
L 677.436557 275.863779 
L 685.042903 275.800676 
L 692.649248 275.690211 
L 700.255593 275.501926 
L 707.861939 275.189441 
L 715.468284 274.684476 
L 723.074629 273.889937 
L 730.680974 272.672663 
L 738.28732 270.856806 
L 745.893665 268.219286 
L 753.50001 264.489104 
L 761.106355 259.3524 
L 768.712701 252.464933 
L 776.319046 243.472962 
L 783.925391 232.042319 
L 791.531737 217.893934 
L 799.138082 200.842399 
L 806.744427 180.832698 
L 814.350772 157.969438 
L 821.957118 132.533006 
L 829.563463 104.978368 
L 837.169808 75.914479 
L 844.776153 46.065241 
" clip-path="url(#pa11462e5d3)" style="fill: none; stroke: #45baff; stroke-opacity: 0.7; stroke-width: 2; stroke-linecap: square"/>
   </g>
   <g id="line2d_29">
    <path d="M 91.747972 505.810696 
L 99.354317 479.93179 
L 106.960662 454.565529 
L 114.567007 430.194296 
L 122.173353 407.242899 
L 129.779698 386.056789 
L 137.386043 366.887593 
L 144.992388 349.886882 
L 152.598734 335.108028 
L 160.205079 322.51515 
L 167.811424 311.997476 
L 175.41777 303.387044 
L 183.024115 296.477638 
L 190.63046 291.043047 
L 198.236805 286.853147 
L 205.843151 283.686856 
L 213.449496 281.341501 
L 221.055841 279.63865 
L 228.662186 278.426783 
L 236.268532 277.581418 
L 243.874877 277.003397 
L 251.481222 276.616002 
L 259.087568 276.36151 
L 266.693913 276.197638 
L 274.300258 276.094208 
L 281.906603 276.03022 
L 289.512949 275.991418 
L 297.119294 275.968354 
L 304.725639 275.954917 
L 312.331984 275.947243 
L 319.93833 275.942948 
L 327.544675 275.940591 
L 335.15102 275.939323 
L 342.757366 275.938655 
L 350.363711 275.93831 
L 357.970056 275.938135 
L 365.576401 275.938048 
L 373.182747 275.938006 
L 380.789092 275.937986 
L 388.395437 275.937976 
L 396.001782 275.937972 
L 403.608128 275.93797 
L 411.214473 275.937969 
L 418.820818 275.937969 
L 426.427164 275.937969 
L 434.033509 275.937969 
L 441.639854 275.937969 
L 449.246199 275.937969 
L 456.852545 275.937969 
L 464.45889 275.937969 
L 472.065235 275.937969 
L 479.67158 275.937969 
L 487.277926 275.937969 
L 494.884271 275.937969 
L 502.490616 275.937969 
L 510.096961 275.937969 
L 517.703307 275.937968 
L 525.309652 275.937968 
L 532.915997 275.937967 
L 540.522343 275.937965 
L 548.128688 275.937961 
L 555.735033 275.937952 
L 563.341378 275.937931 
L 570.947724 275.937889 
L 578.554069 275.937802 
L 586.160414 275.937628 
L 593.766759 275.937282 
L 601.373105 275.936614 
L 608.97945 275.935347 
L 616.585795 275.93299 
L 624.192141 275.928694 
L 631.798486 275.921021 
L 639.404831 275.907583 
L 647.011176 275.884519 
L 654.617522 275.845717 
L 662.223867 275.781729 
L 669.830212 275.678299 
L 677.436557 275.514427 
L 685.042903 275.259936 
L 692.649248 274.872541 
L 700.255593 274.29452 
L 707.861939 273.449155 
L 715.468284 272.237287 
L 723.074629 270.534436 
L 730.680974 268.189082 
L 738.28732 265.022791 
L 745.893665 260.832891 
L 753.50001 255.398299 
L 761.106355 248.488894 
L 768.712701 239.878461 
L 776.319046 229.360787 
L 783.925391 216.767909 
L 791.531737 201.989055 
L 799.138082 184.988345 
L 806.744427 165.819149 
L 814.350772 144.633038 
L 821.957118 121.681642 
L 829.563463 97.310408 
L 837.169808 71.944148 
L 844.776153 46.065241 
" clip-path="url(#pa11462e5d3)" style="fill: none; stroke: #5da2ff; stroke-opacity: 0.7; stroke-width: 2; stroke-linecap: square"/>
   </g>
   <g id="line2d_30">
    <path d="M 91.747972 505.810696 
L 99.354317 482.648467 
L 106.960662 459.854157 
L 114.567007 437.778245 
L 122.173353 416.737701 
L 129.779698 397.002508 
L 137.386043 378.785717 
L 144.992388 362.237603 
L 152.598734 347.444094 
L 160.205079 334.429218 
L 167.811424 323.161008 
L 175.41777 313.560021 
L 183.024115 305.509518 
L 190.63046 298.866336 
L 198.236805 293.471535 
L 205.843151 289.16011 
L 213.449496 285.769232 
L 221.055841 283.144713 
L 228.662186 281.145619 
L 236.268532 279.647098 
L 243.874877 278.541649 
L 251.481222 277.739121 
L 259.087568 277.16576 
L 266.693913 276.762633 
L 274.300258 276.483699 
L 281.906603 276.293762 
L 289.512949 276.166483 
L 297.119294 276.082545 
L 304.725639 276.028069 
L 312.331984 275.993276 
L 319.93833 275.971407 
L 327.544675 275.95788 
L 335.15102 275.949645 
L 342.757366 275.944712 
L 350.363711 275.941804 
L 357.970056 275.940117 
L 365.576401 275.939153 
L 373.182747 275.938612 
L 380.789092 275.938313 
L 388.395437 275.93815 
L 396.001782 275.938063 
L 403.608128 275.938017 
L 411.214473 275.937993 
L 418.820818 275.937981 
L 426.427164 275.937975 
L 434.033509 275.937972 
L 441.639854 275.93797 
L 449.246199 275.937969 
L 456.852545 275.937969 
L 464.45889 275.937969 
L 472.065235 275.937969 
L 479.67158 275.937968 
L 487.277926 275.937968 
L 494.884271 275.937967 
L 502.490616 275.937966 
L 510.096961 275.937963 
L 517.703307 275.937957 
L 525.309652 275.937945 
L 532.915997 275.937921 
L 540.522343 275.937875 
L 548.128688 275.937788 
L 555.735033 275.937625 
L 563.341378 275.937325 
L 570.947724 275.936784 
L 578.554069 275.935821 
L 586.160414 275.934133 
L 593.766759 275.931225 
L 601.373105 275.926292 
L 608.97945 275.918058 
L 616.585795 275.90453 
L 624.192141 275.882661 
L 631.798486 275.847868 
L 639.404831 275.793393 
L 647.011176 275.709455 
L 654.617522 275.582175 
L 662.223867 275.392239 
L 669.830212 275.113305 
L 677.436557 274.710177 
L 685.042903 274.136816 
L 692.649248 273.334288 
L 700.255593 272.22884 
L 707.861939 270.730318 
L 715.468284 268.731224 
L 723.074629 266.106706 
L 730.680974 262.715827 
L 738.28732 258.404403 
L 745.893665 253.009602 
L 753.50001 246.36642 
L 761.106355 238.315917 
L 768.712701 228.714929 
L 776.319046 217.446719 
L 783.925391 204.431844 
L 791.531737 189.638334 
L 799.138082 173.090221 
L 806.744427 154.873429 
L 814.350772 135.138236 
L 821.957118 114.097692 
L 829.563463 92.02178 
L 837.169808 69.22747 
L 844.776153 46.065241 
" clip-path="url(#pa11462e5d3)" style="fill: none; stroke: #748bff; stroke-opacity: 0.7; stroke-width: 2; stroke-linecap: square"/>
   </g>
   <g id="line2d_31">
    <path d="M 91.747972 505.810696 
L 99.354317 484.65717 
L 106.960662 463.784089 
L 114.567007 443.460793 
L 122.173353 423.935141 
L 129.779698 405.424532 
L 137.386043 388.108846 
L 144.992388 372.125693 
L 152.598734 357.568118 
L 160.205079 344.484756 
L 167.811424 332.882204 
L 175.41777 322.729273 
L 183.024115 313.962633 
L 190.63046 306.493354 
L 198.236805 300.213812 
L 205.843151 295.004491 
L 213.449496 290.740288 
L 221.055841 287.296007 
L 228.662186 284.550876 
L 236.268532 282.391983 
L 243.874877 280.716642 
L 251.481222 279.433783 
L 259.087568 278.464482 
L 266.693913 277.741809 
L 274.300258 277.210156 
L 281.906603 276.824216 
L 289.512949 276.547767 
L 297.119294 276.352373 
L 304.725639 276.216098 
L 312.331984 276.122316 
L 319.93833 276.058632 
L 327.544675 276.01596 
L 335.15102 275.987746 
L 342.757366 275.969339 
L 350.363711 275.95749 
L 357.970056 275.949962 
L 365.576401 275.945244 
L 373.182747 275.942326 
L 380.789092 275.940545 
L 388.395437 275.939473 
L 396.001782 275.938836 
L 403.608128 275.938462 
L 411.214473 275.938246 
L 418.820818 275.938122 
L 426.427164 275.938053 
L 434.033509 275.938014 
L 441.639854 275.937993 
L 449.246199 275.937981 
L 456.852545 275.937975 
L 464.45889 275.93797 
L 472.065235 275.937967 
L 479.67158 275.937963 
L 487.277926 275.937956 
L 494.884271 275.937945 
L 502.490616 275.937923 
L 510.096961 275.937885 
L 517.703307 275.937815 
L 525.309652 275.937692 
L 532.915997 275.937476 
L 540.522343 275.937102 
L 548.128688 275.936465 
L 555.735033 275.935392 
L 563.341378 275.933611 
L 570.947724 275.930693 
L 578.554069 275.925975 
L 586.160414 275.918448 
L 593.766759 275.906598 
L 601.373105 275.888191 
L 608.97945 275.859977 
L 616.585795 275.817305 
L 624.192141 275.753621 
L 631.798486 275.659839 
L 639.404831 275.523565 
L 647.011176 275.32817 
L 654.617522 275.051722 
L 662.223867 274.665782 
L 669.830212 274.134128 
L 677.436557 273.411455 
L 685.042903 272.442155 
L 692.649248 271.159296 
L 700.255593 269.483955 
L 707.861939 267.325061 
L 715.468284 264.579931 
L 723.074629 261.13565 
L 730.680974 256.871446 
L 738.28732 251.662126 
L 745.893665 245.382584 
L 753.50001 237.913305 
L 761.106355 229.146665 
L 768.712701 218.993733 
L 776.319046 207.391181 
L 783.925391 194.307819 
L 791.531737 179.750245 
L 799.138082 163.767091 
L 806.744427 146.451406 
L 814.350772 127.940796 
L 821.957118 108.415145 
L 829.563463 88.091848 
L 837.169808 67.218767 
L 844.776153 46.065241 
" clip-path="url(#pa11462e5d3)" style="fill: none; stroke: #8b74ff; stroke-opacity: 0.7; stroke-width: 2; stroke-linecap: square"/>
   </g>
   <g id="line2d_32">
    <path d="M 91.747972 505.810696 
L 99.354317 486.220116 
L 106.960662 466.852403 
L 114.567007 447.922848 
L 122.173353 429.632014 
L 129.779698 412.15941 
L 137.386043 395.658313 
L 144.992388 380.25199 
L 152.598734 366.031444 
L 160.205079 353.054737 
L 167.811424 341.347786 
L 175.41777 330.906496 
L 183.024115 321.699976 
L 190.63046 313.674553 
L 198.236805 306.758293 
L 205.843151 300.86571 
L 213.449496 295.902401 
L 221.055841 291.769379 
L 228.662186 288.366901 
L 236.268532 285.597705 
L 243.874877 283.36956 
L 251.481222 281.597151 
L 259.087568 280.203302 
L 266.693913 279.119629 
L 274.300258 278.286692 
L 281.906603 277.653761 
L 289.512949 277.178281 
L 297.119294 276.825147 
L 304.725639 276.565863 
L 312.331984 276.377652 
L 319.93833 276.242586 
L 327.544675 276.146761 
L 335.15102 276.079551 
L 342.757366 276.032946 
L 350.363711 276.000997 
L 357.970056 275.979345 
L 365.576401 275.964837 
L 373.182747 275.955228 
L 380.789092 275.948934 
L 388.395437 275.94486 
L 396.001782 275.942253 
L 403.608128 275.940603 
L 411.214473 275.93957 
L 418.820818 275.938932 
L 426.427164 275.938541 
L 434.033509 275.938304 
L 441.639854 275.938162 
L 449.246199 275.938076 
L 456.852545 275.938022 
L 464.45889 275.937985 
L 472.065235 275.937953 
L 479.67158 275.937916 
L 487.277926 275.937862 
L 494.884271 275.937776 
L 502.490616 275.937633 
L 510.096961 275.937397 
L 517.703307 275.937006 
L 525.309652 275.936367 
L 532.915997 275.935335 
L 540.522343 275.933685 
L 548.128688 275.931077 
L 555.735033 275.927003 
L 563.341378 275.92071 
L 570.947724 275.9111 
L 578.554069 275.896593 
L 586.160414 275.87494 
L 593.766759 275.842991 
L 601.373105 275.796387 
L 608.97945 275.729176 
L 616.585795 275.633352 
L 624.192141 275.498286 
L 631.798486 275.310075 
L 639.404831 275.05079 
L 647.011176 274.697657 
L 654.617522 274.222177 
L 662.223867 273.589245 
L 669.830212 272.756309 
L 677.436557 271.672636 
L 685.042903 270.278787 
L 692.649248 268.506378 
L 700.255593 266.278233 
L 707.861939 263.509036 
L 715.468284 260.106558 
L 723.074629 255.973536 
L 730.680974 251.010228 
L 738.28732 245.117644 
L 745.893665 238.201384 
L 753.50001 230.175962 
L 761.106355 220.969442 
L 768.712701 210.528152 
L 776.319046 198.821201 
L 783.925391 185.844493 
L 791.531737 171.623948 
L 799.138082 156.217624 
L 806.744427 139.716528 
L 814.350772 122.243923 
L 821.957118 103.953089 
L 829.563463 85.023535 
L 837.169808 65.655822 
L 844.776153 46.065241 
" clip-path="url(#pa11462e5d3)" style="fill: none; stroke: #a25dff; stroke-opacity: 0.7; stroke-width: 2; stroke-linecap: square"/>
   </g>
   <g id="line2d_33">
    <path d="M 91.747972 505.810696 
L 99.354317 487.48102 
L 106.960662 469.333953 
L 114.567007 451.546666 
L 122.173353 434.285719 
L 129.779698 417.702412 
L 137.386043 401.928866 
L 144.992388 387.075012 
L 152.598734 373.22658 
L 160.205079 360.444142 
L 167.811424 348.763185 
L 175.41777 338.195138 
L 183.024115 328.72922 
L 190.63046 320.33496 
L 198.236805 312.965196 
L 205.843151 306.559349 
L 213.449496 301.046818 
L 221.055841 296.350287 
L 228.662186 292.38883 
L 236.268532 289.080686 
L 243.874877 286.345635 
L 251.481222 284.106924 
L 259.087568 282.292736 
L 266.693913 280.837215 
L 274.300258 279.681087 
L 281.906603 278.771917 
L 289.512949 278.064076 
L 297.119294 277.518471 
L 304.725639 277.102108 
L 312.331984 276.787537 
L 319.93833 276.552241 
L 327.544675 276.377994 
L 335.15102 276.250243 
L 342.757366 276.157514 
L 350.363711 276.090876 
L 357.970056 276.043465 
L 365.576401 276.01007 
L 373.182747 275.986782 
L 380.789092 275.970703 
L 388.395437 275.959712 
L 396.001782 275.952274 
L 403.608128 275.947291 
L 411.214473 275.943984 
L 418.820818 275.941812 
L 426.427164 275.940397 
L 434.033509 275.939482 
L 441.639854 275.938892 
L 449.246199 275.938508 
L 456.852545 275.938249 
L 464.45889 275.938055 
L 472.065235 275.937882 
L 479.67158 275.937689 
L 487.277926 275.937429 
L 494.884271 275.937045 
L 502.490616 275.936456 
L 510.096961 275.935541 
L 517.703307 275.934126 
L 525.309652 275.931953 
L 532.915997 275.928647 
L 540.522343 275.923663 
L 548.128688 275.916225 
L 555.735033 275.905235 
L 563.341378 275.889156 
L 570.947724 275.865867 
L 578.554069 275.832472 
L 586.160414 275.785061 
L 593.766759 275.718424 
L 601.373105 275.625694 
L 608.97945 275.497943 
L 616.585795 275.323697 
L 624.192141 275.0884 
L 631.798486 274.77383 
L 639.404831 274.357466 
L 647.011176 273.811861 
L 654.617522 273.10402 
L 662.223867 272.19485 
L 669.830212 271.038722 
L 677.436557 269.583202 
L 685.042903 267.769013 
L 692.649248 265.530302 
L 700.255593 262.795251 
L 707.861939 259.487107 
L 715.468284 255.52565 
L 723.074629 250.829119 
L 730.680974 245.316588 
L 738.28732 238.910742 
L 745.893665 231.540977 
L 753.50001 223.146718 
L 761.106355 213.6808 
L 768.712701 203.112752 
L 776.319046 191.431796 
L 783.925391 178.649358 
L 791.531737 164.800926 
L 799.138082 149.947072 
L 806.744427 134.173526 
L 814.350772 117.590218 
L 821.957118 100.329271 
L 829.563463 82.541985 
L 837.169808 64.394918 
L 844.776153 46.065241 
" clip-path="url(#pa11462e5d3)" style="fill: none; stroke: #ba45ff; stroke-opacity: 0.7; stroke-width: 2; stroke-linecap: square"/>
   </g>
   <g id="line2d_34">
    <path d="M 91.747972 505.810696 
L 99.354317 488.526108 
L 106.960662 471.394684 
L 114.567007 454.565529 
L 122.173353 438.179807 
L 129.779698 422.367205 
L 137.386043 407.242899 
L 144.992388 392.905115 
L 152.598734 379.433396 
L 160.205079 366.887593 
L 167.811424 355.307599 
L 175.41777 344.713779 
L 183.024115 335.108028 
L 190.63046 326.475372 
L 198.236805 318.785979 
L 205.843151 311.997476 
L 213.449496 306.057421 
L 221.055841 300.905832 
L 228.662186 296.477638 
L 236.268532 292.704991 
L 243.874877 289.519324 
L 251.481222 286.853147 
L 259.087568 284.64152 
L 266.693913 282.823204 
L 274.300258 281.341501 
L 281.906603 280.144796 
L 289.512949 279.186834 
L 297.119294 278.426783 
L 304.725639 277.829097 
L 312.331984 277.363258 
L 319.93833 277.003397 
L 327.544675 276.727867 
L 335.15102 276.518777 
L 342.757366 276.36151 
L 350.363711 276.244271 
L 357.970056 276.157646 
L 365.576401 276.094208 
L 373.182747 276.048162 
L 380.789092 276.015035 
L 388.395437 275.991415 
L 396.001782 275.97472 
L 403.608128 275.963024 
L 411.214473 275.9549 
L 418.820818 275.949303 
L 426.427164 275.945474 
L 434.033509 275.942868 
L 441.639854 275.941092 
L 449.246199 275.939865 
L 456.852545 275.938982 
L 464.45889 275.938287 
L 472.065235 275.937651 
L 479.67158 275.936955 
L 487.277926 275.936072 
L 494.884271 275.934845 
L 502.490616 275.933069 
L 510.096961 275.930463 
L 517.703307 275.926635 
L 525.309652 275.921038 
L 532.915997 275.912914 
L 540.522343 275.901218 
L 548.128688 275.884523 
L 555.735033 275.860902 
L 563.341378 275.827776 
L 570.947724 275.78173 
L 578.554069 275.718292 
L 586.160414 275.631667 
L 593.766759 275.514428 
L 601.373105 275.357161 
L 608.97945 275.14807 
L 616.585795 274.872541 
L 624.192141 274.51268 
L 631.798486 274.04684 
L 639.404831 273.449155 
L 647.011176 272.689103 
L 654.617522 271.731142 
L 662.223867 270.534436 
L 669.830212 269.052733 
L 677.436557 267.234418 
L 685.042903 265.022791 
L 692.649248 262.356614 
L 700.255593 259.170947 
L 707.861939 255.398299 
L 715.468284 250.970106 
L 723.074629 245.818516 
L 730.680974 239.878461 
L 738.28732 233.089958 
L 745.893665 225.400566 
L 753.50001 216.767909 
L 761.106355 207.162159 
L 768.712701 196.568338 
L 776.319046 184.988345 
L 783.925391 172.442542 
L 791.531737 158.970822 
L 799.138082 144.633038 
L 806.744427 129.508732 
L 814.350772 113.696131 
L 821.957118 97.310408 
L 829.563463 80.481253 
L 837.169808 63.349829 
L 844.776153 46.065241 
" clip-path="url(#pa11462e5d3)" style="fill: none; stroke: #d12eff; stroke-opacity: 0.7; stroke-width: 2; stroke-linecap: square"/>
   </g>
   <g id="line2d_35">
    <path d="M 91.747972 505.810696 
L 99.354317 489.410664 
L 106.960662 473.141494 
L 114.567007 457.130921 
L 122.173353 441.500559 
L 129.779698 426.363135 
L 137.386043 411.820082 
L 144.992388 397.959548 
L 152.598734 384.854909 
L 160.205079 372.563805 
L 167.811424 361.127719 
L 175.41777 350.572076 
L 183.024115 340.906835 
L 190.63046 332.127503 
L 198.236805 324.216513 
L 205.843151 317.144858 
L 213.449496 310.873927 
L 221.055841 305.357427 
L 228.662186 300.543318 
L 236.268532 296.375689 
L 243.874877 292.796515 
L 251.481222 289.747234 
L 259.087568 287.170126 
L 266.693913 285.009455 
L 274.300258 283.212383 
L 281.906603 281.729651 
L 289.512949 280.516036 
L 297.119294 279.53062 
L 304.725639 278.736878 
L 312.331984 278.102629 
L 319.93833 277.599869 
L 327.544675 277.204518 
L 335.15102 276.89611 
L 342.757366 276.657445 
L 350.363711 276.474225 
L 357.970056 276.334691 
L 365.576401 276.229274 
L 373.182747 276.150268 
L 380.789092 276.091526 
L 388.395437 276.048198 
L 396.001782 276.01649 
L 403.608128 275.993465 
L 411.214473 275.976871 
L 418.820818 275.964994 
L 426.427164 275.956538 
L 434.033509 275.950533 
L 441.639854 275.946251 
L 449.246199 275.943145 
L 456.852545 275.940795 
L 464.45889 275.938866 
L 472.065235 275.937072 
L 479.67158 275.935143 
L 487.277926 275.932793 
L 494.884271 275.929687 
L 502.490616 275.925405 
L 510.096961 275.9194 
L 517.703307 275.910944 
L 525.309652 275.899066 
L 532.915997 275.882472 
L 540.522343 275.859448 
L 548.128688 275.82774 
L 555.735033 275.784412 
L 563.341378 275.72567 
L 570.947724 275.646663 
L 578.554069 275.541247 
L 586.160414 275.401713 
L 593.766759 275.218493 
L 601.373105 274.979828 
L 608.97945 274.67142 
L 616.585795 274.276069 
L 624.192141 273.773309 
L 631.798486 273.13906 
L 639.404831 272.345318 
L 647.011176 271.359901 
L 654.617522 270.146286 
L 662.223867 268.663554 
L 669.830212 266.866483 
L 677.436557 264.705812 
L 685.042903 262.128703 
L 692.649248 259.079423 
L 700.255593 255.500248 
L 707.861939 251.33262 
L 715.468284 246.51851 
L 723.074629 241.00201 
L 730.680974 234.73108 
L 738.28732 227.659425 
L 745.893665 219.748434 
L 753.50001 210.969103 
L 761.106355 201.303862 
L 768.712701 190.748218 
L 776.319046 179.312132 
L 783.925391 167.021029 
L 791.531737 153.91639 
L 799.138082 140.055856 
L 806.744427 125.512802 
L 814.350772 110.375379 
L 821.957118 94.745016 
L 829.563463 78.734444 
L 837.169808 62.465273 
L 844.776153 46.065241 
" clip-path="url(#pa11462e5d3)" style="fill: none; stroke: #e817ff; stroke-opacity: 0.7; stroke-width: 2; stroke-linecap: square"/>
   </g>
   <g id="line2d_36">
    <path d="M 91.747972 505.810696 
L 99.354317 490.171982 
L 106.960662 474.646758 
L 114.567007 459.34605 
L 122.173353 444.376042 
L 129.779698 429.835875 
L 137.386043 415.815697 
L 144.992388 402.395017 
L 152.598734 389.641429 
L 160.205079 377.609728 
L 167.811424 366.341425 
L 175.41777 355.864669 
L 183.024115 346.194545 
L 190.63046 337.333724 
L 198.236805 329.273393 
L 205.843151 321.994447 
L 213.449496 315.468839 
L 221.055841 309.661057 
L 228.662186 304.529651 
L 236.268532 300.02875 
L 243.874877 296.109533 
L 251.481222 292.721592 
L 259.087568 289.814161 
L 266.693913 287.337197 
L 274.300258 285.24228 
L 281.906603 283.483341 
L 289.512949 282.017214 
L 297.119294 280.804022 
L 304.725639 279.807416 
L 312.331984 278.994669 
L 319.93833 278.336673 
L 327.544675 277.807828 
L 335.15102 277.385868 
L 342.757366 277.051635 
L 350.363711 276.788809 
L 357.970056 276.583634 
L 365.576401 276.424624 
L 373.182747 276.302284 
L 380.789092 276.208836 
L 388.395437 276.137968 
L 396.001782 276.084604 
L 403.608128 276.044696 
L 411.214473 276.015043 
L 418.820818 275.993133 
L 426.427164 275.977006 
L 434.033509 275.96514 
L 441.639854 275.956351 
L 449.246199 275.949712 
L 456.852545 275.944485 
L 464.45889 275.940055 
L 472.065235 275.935883 
L 479.67158 275.931453 
L 487.277926 275.926225 
L 494.884271 275.919586 
L 502.490616 275.910797 
L 510.096961 275.898931 
L 517.703307 275.882805 
L 525.309652 275.860895 
L 532.915997 275.831242 
L 540.522343 275.791333 
L 548.128688 275.737969 
L 555.735033 275.667101 
L 563.341378 275.573653 
L 570.947724 275.451313 
L 578.554069 275.292304 
L 586.160414 275.087129 
L 593.766759 274.824303 
L 601.373105 274.490069 
L 608.97945 274.068109 
L 616.585795 273.539264 
L 624.192141 272.881268 
L 631.798486 272.068522 
L 639.404831 271.071915 
L 647.011176 269.858724 
L 654.617522 268.392597 
L 662.223867 266.633658 
L 669.830212 264.538741 
L 677.436557 262.061777 
L 685.042903 259.154346 
L 692.649248 255.766404 
L 700.255593 251.847188 
L 707.861939 247.346287 
L 715.468284 242.21488 
L 723.074629 236.407098 
L 730.680974 229.88149 
L 738.28732 222.602544 
L 745.893665 214.542214 
L 753.50001 205.681392 
L 761.106355 196.011269 
L 768.712701 185.534512 
L 776.319046 174.266209 
L 783.925391 162.234508 
L 791.531737 149.480921 
L 799.138082 136.06024 
L 806.744427 122.040062 
L 814.350772 107.499896 
L 821.957118 92.529888 
L 829.563463 77.229179 
L 837.169808 61.703956 
L 844.776153 46.065241 
" clip-path="url(#pa11462e5d3)" style="fill: none; stroke: #ff00ff; stroke-opacity: 0.7; stroke-width: 2; stroke-linecap: square"/>
   </g>
   <g id="line2d_37">
    <path d="M 54.096563 505.810696 
L 882.427562 505.810696 
" clip-path="url(#pa11462e5d3)" style="fill: none; stroke-dasharray: 5.55,2.4; stroke-dashoffset: 0; stroke: #ff0000; stroke-width: 1.5"/>
   </g>
   <g id="line2d_38">
    <path d="M 54.096563 46.065241 
L 882.427562 46.065241 
" clip-path="url(#pa11462e5d3)" style="fill: none; stroke-dasharray: 5.55,2.4; stroke-dashoffset: 0; stroke: #0000ff; stroke-width: 1.5"/>
   </g>
   <g id="line2d_39">
    <path d="M 54.096563 275.937969 
L 882.427562 275.937969 
" clip-path="url(#pa11462e5d3)" style="fill: none; stroke-dasharray: 1.5,2.475; stroke-dashoffset: 0; stroke: #008000; stroke-width: 1.5"/>
   </g>
   <g id="patch_3">
    <path d="M 54.096563 528.797969 
L 54.096563 23.077969 
" style="fill: none; stroke: #000000; stroke-width: 0.8; stroke-linejoin: miter; stroke-linecap: square"/>
   </g>
   <g id="patch_4">
    <path d="M 882.427562 528.797969 
L 882.427562 23.077969 
" style="fill: none; stroke: #000000; stroke-width: 0.8; stroke-linejoin: miter; stroke-linecap: square"/>
   </g>
   <g id="patch_5">
    <path d="M 54.096563 528.797969 
L 882.427562 528.797969 
" style="fill: none; stroke: #000000; stroke-width: 0.8; stroke-linejoin: miter; stroke-linecap: square"/>
   </g>
   <g id="patch_6">
    <path d="M 54.096563 23.077969 
L 882.427562 23.077969 
" style="fill: none; stroke: #000000; stroke-width: 0.8; stroke-linejoin: miter; stroke-linecap: square"/>
   </g>
   <g id="text_15">
    <!-- Linear Diffusion: Analytical Solution Evolution (D=4.0e-3 m²/s) -->
    <g transform="translate(265.120812 17.077969) scale(0.13 -0.13)">
     <defs>
      <path id="DejaVuSans-4c" d="M 628 4666 
L 1259 4666 
L 1259 531 
L 3531 531 
L 3531 0 
L 628 0 
L 628 4666 
z
" transform="scale(0.015625)"/>
      <path id="DejaVuSans-44" d="M 1259 4147 
L 1259 519 
L 2022 519 
Q 2988 519 3436 956 
Q 3884 1394 3884 2338 
Q 3884 3275 3436 3711 
Q 2988 4147 2022 4147 
L 1259 4147 
z
M 628 4666 
L 1925 4666 
Q 3281 4666 3915 4102 
Q 4550 3538 4550 2338 
Q 4550 1131 3912 565 
Q 3275 0 1925 0 
L 628 0 
L 628 4666 
z
" transform="scale(0.015625)"/>
      <path id="DejaVuSans-66" d="M 2375 4863 
L 2375 4384 
L 1825 4384 
Q 1516 4384 1395 4259 
Q 1275 4134 1275 3809 
L 1275 3500 
L 2222 3500 
L 2222 3053 
L 1275 3053 
L 1275 0 
L 697 0 
L 697 3053 
L 147 3053 
L 147 3500 
L 697 3500 
L 697 3744 
Q 697 4328 969 4595 
Q 1241 4863 1831 4863 
L 2375 4863 
z
" transform="scale(0.015625)"/>
      <path id="DejaVuSans-3a" d="M 750 794 
L 1409 794 
L 1409 0 
L 750 0 
L 750 794 
z
M 750 3309 
L 1409 3309 
L 1409 2516 
L 750 2516 
L 750 3309 
z
" transform="scale(0.015625)"/>
      <path id="DejaVuSans-41" d="M 2188 4044 
L 1331 1722 
L 3047 1722 
L 2188 4044 
z
M 1831 4666 
L 2547 4666 
L 4325 0 
L 3669 0 
L 3244 1197 
L 1141 1197 
L 716 0 
L 50 0 
L 1831 4666 
z
" transform="scale(0.015625)"/>
      <path id="DejaVuSans-53" d="M 3425 4513 
L 3425 3897 
Q 3066 4069 2747 4153 
Q 2428 4238 2131 4238 
Q 1616 4238 1336 4038 
Q 1056 3838 1056 3469 
Q 1056 3159 1242 3001 
Q 1428 2844 1947 2747 
L 2328 2669 
Q 3034 2534 3370 2195 
Q 3706 1856 3706 1288 
Q 3706 609 3251 259 
Q 2797 -91 1919 -91 
Q 1588 -91 1214 -16 
Q 841 59 441 206 
L 441 856 
Q 825 641 1194 531 
Q 1563 422 1919 422 
Q 2459 422 2753 634 
Q 3047 847 3047 1241 
Q 3047 1584 2836 1778 
Q 2625 1972 2144 2069 
L 1759 2144 
Q 1053 2284 737 2584 
Q 422 2884 422 3419 
Q 422 4038 858 4394 
Q 1294 4750 2059 4750 
Q 2388 4750 2728 4690 
Q 3069 4631 3425 4513 
z
" transform="scale(0.015625)"/>
      <path id="DejaVuSans-45" d="M 628 4666 
L 3578 4666 
L 3578 4134 
L 1259 4134 
L 1259 2753 
L 3481 2753 
L 3481 2222 
L 1259 2222 
L 1259 531 
L 3634 531 
L 3634 0 
L 628 0 
L 628 4666 
z
" transform="scale(0.015625)"/>
      <path id="DejaVuSans-76" d="M 191 3500 
L 800 3500 
L 1894 563 
L 2988 3500 
L 3597 3500 
L 2284 0 
L 1503 0 
L 191 3500 
z
" transform="scale(0.015625)"/>
      <path id="DejaVuSans-3d" d="M 678 2906 
L 4684 2906 
L 4684 2381 
L 678 2381 
L 678 2906 
z
M 678 1631 
L 4684 1631 
L 4684 1100 
L 678 1100 
L 678 1631 
z
" transform="scale(0.015625)"/>
      <path id="DejaVuSans-2d" d="M 313 2009 
L 1997 2009 
L 1997 1497 
L 313 1497 
L 313 2009 
z
" transform="scale(0.015625)"/>
      <path id="DejaVuSans-33" d="M 2597 2516 
Q 3050 2419 3304 2112 
Q 3559 1806 3559 1356 
Q 3559 666 3084 287 
Q 2609 -91 1734 -91 
Q 1441 -91 1130 -33 
Q 819 25 488 141 
L 488 750 
Q 750 597 1062 519 
Q 1375 441 1716 441 
Q 2309 441 2620 675 
Q 2931 909 2931 1356 
Q 2931 1769 2642 2001 
Q 2353 2234 1838 2234 
L 1294 2234 
L 1294 2753 
L 1863 2753 
Q 2328 2753 2575 2939 
Q 2822 3125 2822 3475 
Q 2822 3834 2567 4026 
Q 2313 4219 1838 4219 
Q 1578 4219 1281 4162 
Q 984 4106 628 3988 
L 628 4550 
Q 988 4650 1302 4700 
Q 1616 4750 1894 4750 
Q 2613 4750 3031 4423 
Q 3450 4097 3450 3541 
Q 3450 3153 3228 2886 
Q 3006 2619 2597 2516 
z
" transform="scale(0.015625)"/>
      <path id="DejaVuSans-b2" d="M 838 2444 
L 2163 2444 
L 2163 2088 
L 294 2088 
L 294 2431 
Q 400 2528 597 2703 
Q 1672 3656 1672 3950 
Q 1672 4156 1509 4282 
Q 1347 4409 1081 4409 
Q 919 4409 728 4354 
Q 538 4300 313 4191 
L 313 4575 
Q 553 4663 761 4706 
Q 969 4750 1147 4750 
Q 1600 4750 1872 4544 
Q 2144 4338 2144 4000 
Q 2144 3566 1109 2678 
Q 934 2528 838 2444 
z
" transform="scale(0.015625)"/>
      <path id="DejaVuSans-2f" d="M 1625 4666 
L 2156 4666 
L 531 -594 
L 0 -594 
L 1625 4666 
z
" transform="scale(0.015625)"/>
     </defs>
     <use xlink:href="#DejaVuSans-4c"/>
     <use xlink:href="#DejaVuSans-69" transform="translate(55.712891 0)"/>
     <use xlink:href="#DejaVuSans-6e" transform="translate(83.496094 0)"/>
     <use xlink:href="#DejaVuSans-65" transform="translate(146.875 0)"/>
     <use xlink:href="#DejaVuSans-61" transform="translate(208.398438 0)"/>
     <use xlink:href="#DejaVuSans-72" transform="translate(269.677734 0)"/>
     <use xlink:href="#DejaVuSans-20" transform="translate(310.791016 0)"/>
     <use xlink:href="#DejaVuSans-44" transform="translate(342.578125 0)"/>
     <use xlink:href="#DejaVuSans-69" transform="translate(419.580078 0)"/>
     <use xlink:href="#DejaVuSans-66" transform="translate(447.363281 0)"/>
     <use xlink:href="#DejaVuSans-66" transform="translate(482.568359 0)"/>
     <use xlink:href="#DejaVuSans-75" transform="translate(517.773438 0)"/>
     <use xlink:href="#DejaVuSans-73" transform="translate(581.152344 0)"/>
     <use xlink:href="#DejaVuSans-69" transform="translate(633.251953 0)"/>
     <use xlink:href="#DejaVuSans-6f" transform="translate(661.035156 0)"/>
     <use xlink:href="#DejaVuSans-6e" transform="translate(722.216797 0)"/>
     <use xlink:href="#DejaVuSans-3a" transform="translate(785.595703 0)"/>
     <use xlink:href="#DejaVuSans-20" transform="translate(819.287109 0)"/>
     <use xlink:href="#DejaVuSans-41" transform="translate(851.074219 0)"/>
     <use xlink:href="#DejaVuSans-6e" transform="translate(919.482422 0)"/>
     <use xlink:href="#DejaVuSans-61" transform="translate(982.861328 0)"/>
     <use xlink:href="#DejaVuSans-6c" transform="translate(1044.140625 0)"/>
     <use xlink:href="#DejaVuSans-79" transform="translate(1071.923828 0)"/>
     <use xlink:href="#DejaVuSans-74" transform="translate(1131.103516 0)"/>
     <use xlink:href="#DejaVuSans-69" transform="translate(1170.3125 0)"/>
     <use xlink:href="#DejaVuSans-63" transform="translate(1198.095703 0)"/>
     <use xlink:href="#DejaVuSans-61" transform="translate(1253.076172 0)"/>
     <use xlink:href="#DejaVuSans-6c" transform="translate(1314.355469 0)"/>
     <use xlink:href="#DejaVuSans-20" transform="translate(1342.138672 0)"/>
     <use xlink:href="#DejaVuSans-53" transform="translate(1373.925781 0)"/>
     <use xlink:href="#DejaVuSans-6f" transform="translate(1437.402344 0)"/>
     <use xlink:href="#DejaVuSans-6c" transform="translate(1498.583984 0)"/>
     <use xlink:href="#DejaVuSans-75" transform="translate(1526.367188 0)"/>
     <use xlink:href="#DejaVuSans-74" transform="translate(1589.746094 0)"/>
     <use xlink:href="#DejaVuSans-69" transform="translate(1628.955078 0)"/>
     <use xlink:href="#DejaVuSans-6f" transform="translate(1656.738281 0)"/>
     <use xlink:href="#DejaVuSans-6e" transform="translate(1717.919922 0)"/>
     <use xlink:href="#DejaVuSans-20" transform="translate(1781.298828 0)"/>
     <use xlink:href="#DejaVuSans-45" transform="translate(1813.085938 0)"/>
     <use xlink:href="#DejaVuSans-76" transform="translate(1876.269531 0)"/>
     <use xlink:href="#DejaVuSans-6f" transform="translate(1935.449219 0)"/>
     <use xlink:href="#DejaVuSans-6c" transform="translate(1996.630859 0)"/>
     <use xlink:href="#DejaVuSans-75" transform="translate(2024.414062 0)"/>
     <use xlink:href="#DejaVuSans-74" transform="translate(2087.792969 0)"/>
     <use xlink:href="#DejaVuSans-69" transform="translate(2127.001953 0)"/>
     <use xlink:href="#DejaVuSans-6f" transform="translate(2154.785156 0)"/>
     <use xlink:href="#DejaVuSans-6e" transform="translate(2215.966797 0)"/>
     <use xlink:href="#DejaVuSans-20" transform="translate(2279.345703 0)"/>
     <use xlink:href="#DejaVuSans-28" transform="translate(2311.132812 0)"/>
     <use xlink:href="#DejaVuSans-44" transform="translate(2350.146484 0)"/>
     <use xlink:href="#DejaVuSans-3d" transform="translate(2427.148438 0)"/>
     <use xlink:href="#DejaVuSans-34" transform="translate(2510.9375 0)"/>
     <use xlink:href="#DejaVuSans-2e" transform="translate(2574.560547 0)"/>
     <use xlink:href="#DejaVuSans-30" transform="translate(2606.347656 0)"/>
     <use xlink:href="#DejaVuSans-65" transform="translate(2669.970703 0)"/>
     <use xlink:href="#DejaVuSans-2d" transform="translate(2731.494141 0)"/>
     <use xlink:href="#DejaVuSans-33" transform="translate(2767.578125 0)"/>
     <use xlink:href="#DejaVuSans-20" transform="translate(2831.201172 0)"/>
     <use xlink:href="#DejaVuSans-6d" transform="translate(2862.988281 0)"/>
     <use xlink:href="#DejaVuSans-b2" transform="translate(2960.400391 0)"/>
     <use xlink:href="#DejaVuSans-2f" transform="translate(3000.488281 0)"/>
     <use xlink:href="#DejaVuSans-73" transform="translate(3034.179688 0)"/>
     <use xlink:href="#DejaVuSans-29" transform="translate(3086.279297 0)"/>
    </g>
   </g>
   <g id="legend_1">
    <g id="patch_7">
     <path d="M 905.294182 228.432656 
L 992.480276 228.432656 
Q 994.280276 228.432656 994.280276 226.632656 
L 994.280276 29.377969 
Q 994.280276 27.577969 992.480276 27.577969 
L 905.294182 27.577969 
Q 903.494182 27.577969 903.494182 29.377969 
L 903.494182 226.632656 
Q 903.494182 228.432656 905.294182 228.432656 
z
" style="fill: #ffffff; opacity: 0.8; stroke: #cccccc; stroke-linejoin: miter"/>
    </g>
    <g id="line2d_40">
     <path d="M 907.094182 34.866562 
L 916.094182 34.866562 
L 925.094182 34.866562 
" style="fill: none; stroke: #00ffff; stroke-opacity: 0.7; stroke-width: 2; stroke-linecap: square"/>
    </g>
    <g id="text_16">
     <!-- t=0.00s -->
     <g transform="translate(932.294183 38.016562) scale(0.09 -0.09)">
      <use xlink:href="#DejaVuSans-74"/>
      <use xlink:href="#DejaVuSans-3d" transform="translate(39.208984 0)"/>
      <use xlink:href="#DejaVuSans-30" transform="translate(122.998047 0)"/>
      <use xlink:href="#DejaVuSans-2e" transform="translate(186.621094 0)"/>
      <use xlink:href="#DejaVuSans-30" transform="translate(218.408203 0)"/>
      <use xlink:href="#DejaVuSans-30" transform="translate(282.03125 0)"/>
      <use xlink:href="#DejaVuSans-73" transform="translate(345.654297 0)"/>
     </g>
    </g>
    <g id="line2d_41">
     <path d="M 907.094182 48.076875 
L 916.094182 48.076875 
L 925.094182 48.076875 
" style="fill: none; stroke: #17e8ff; stroke-opacity: 0.7; stroke-width: 2; stroke-linecap: square"/>
    </g>
    <g id="text_17">
     <!-- t=0.16s -->
     <g transform="translate(932.294183 51.226875) scale(0.09 -0.09)">
      <use xlink:href="#DejaVuSans-74"/>
      <use xlink:href="#DejaVuSans-3d" transform="translate(39.208984 0)"/>
      <use xlink:href="#DejaVuSans-30" transform="translate(122.998047 0)"/>
      <use xlink:href="#DejaVuSans-2e" transform="translate(186.621094 0)"/>
      <use xlink:href="#DejaVuSans-31" transform="translate(218.408203 0)"/>
      <use xlink:href="#DejaVuSans-36" transform="translate(282.03125 0)"/>
      <use xlink:href="#DejaVuSans-73" transform="translate(345.654297 0)"/>
     </g>
    </g>
    <g id="line2d_42">
     <path d="M 907.094182 61.287187 
L 916.094182 61.287187 
L 925.094182 61.287187 
" style="fill: none; stroke: #2ed1ff; stroke-opacity: 0.7; stroke-width: 2; stroke-linecap: square"/>
    </g>
    <g id="text_18">
     <!-- t=0.32s -->
     <g transform="translate(932.294183 64.437187) scale(0.09 -0.09)">
      <use xlink:href="#DejaVuSans-74"/>
      <use xlink:href="#DejaVuSans-3d" transform="translate(39.208984 0)"/>
      <use xlink:href="#DejaVuSans-30" transform="translate(122.998047 0)"/>
      <use xlink:href="#DejaVuSans-2e" transform="translate(186.621094 0)"/>
      <use xlink:href="#DejaVuSans-33" transform="translate(218.408203 0)"/>
      <use xlink:href="#DejaVuSans-32" transform="translate(282.03125 0)"/>
      <use xlink:href="#DejaVuSans-73" transform="translate(345.654297 0)"/>
     </g>
    </g>
    <g id="line2d_43">
     <path d="M 907.094182 74.4975 
L 916.094182 74.4975 
L 925.094182 74.4975 
" style="fill: none; stroke: #45baff; stroke-opacity: 0.7; stroke-width: 2; stroke-linecap: square"/>
    </g>
    <g id="text_19">
     <!-- t=0.48s -->
     <g transform="translate(932.294183 77.6475) scale(0.09 -0.09)">
      <use xlink:href="#DejaVuSans-74"/>
      <use xlink:href="#DejaVuSans-3d" transform="translate(39.208984 0)"/>
      <use xlink:href="#DejaVuSans-30" transform="translate(122.998047 0)"/>
      <use xlink:href="#DejaVuSans-2e" transform="translate(186.621094 0)"/>
      <use xlink:href="#DejaVuSans-34" transform="translate(218.408203 0)"/>
      <use xlink:href="#DejaVuSans-38" transform="translate(282.03125 0)"/>
      <use xlink:href="#DejaVuSans-73" transform="translate(345.654297 0)"/>
     </g>
    </g>
    <g id="line2d_44">
     <path d="M 907.094182 87.707812 
L 916.094182 87.707812 
L 925.094182 87.707812 
" style="fill: none; stroke: #5da2ff; stroke-opacity: 0.7; stroke-width: 2; stroke-linecap: square"/>
    </g>
    <g id="text_20">
     <!-- t=0.64s -->
     <g transform="translate(932.294183 90.857812) scale(0.09 -0.09)">
      <use xlink:href="#DejaVuSans-74"/>
      <use xlink:href="#DejaVuSans-3d" transform="translate(39.208984 0)"/>
      <use xlink:href="#DejaVuSans-30" transform="translate(122.998047 0)"/>
      <use xlink:href="#DejaVuSans-2e" transform="translate(186.621094 0)"/>
      <use xlink:href="#DejaVuSans-36" transform="translate(218.408203 0)"/>
      <use xlink:href="#DejaVuSans-34" transform="translate(282.03125 0)"/>
      <use xlink:href="#DejaVuSans-73" transform="translate(345.654297 0)"/>
     </g>
    </g>
    <g id="line2d_45">
     <path d="M 907.094182 100.918125 
L 916.094182 100.918125 
L 925.094182 100.918125 
" style="fill: none; stroke: #748bff; stroke-opacity: 0.7; stroke-width: 2; stroke-linecap: square"/>
    </g>
    <g id="text_21">
     <!-- t=0.80s -->
     <g transform="translate(932.294183 104.068125) scale(0.09 -0.09)">
      <use xlink:href="#DejaVuSans-74"/>
      <use xlink:href="#DejaVuSans-3d" transform="translate(39.208984 0)"/>
      <use xlink:href="#DejaVuSans-30" transform="translate(122.998047 0)"/>
      <use xlink:href="#DejaVuSans-2e" transform="translate(186.621094 0)"/>
      <use xlink:href="#DejaVuSans-38" transform="translate(218.408203 0)"/>
      <use xlink:href="#DejaVuSans-30" transform="translate(282.03125 0)"/>
      <use xlink:href="#DejaVuSans-73" transform="translate(345.654297 0)"/>
     </g>
    </g>
    <g id="line2d_46">
     <path d="M 907.094182 114.128437 
L 916.094182 114.128437 
L 925.094182 114.128437 
" style="fill: none; stroke: #8b74ff; stroke-opacity: 0.7; stroke-width: 2; stroke-linecap: square"/>
    </g>
    <g id="text_22">
     <!-- t=0.95s -->
     <g transform="translate(932.294183 117.278437) scale(0.09 -0.09)">
      <defs>
       <path id="DejaVuSans-39" d="M 703 97 
L 703 672 
Q 941 559 1184 500 
Q 1428 441 1663 441 
Q 2288 441 2617 861 
Q 2947 1281 2994 2138 
Q 2813 1869 2534 1725 
Q 2256 1581 1919 1581 
Q 1219 1581 811 2004 
Q 403 2428 403 3163 
Q 403 3881 828 4315 
Q 1253 4750 1959 4750 
Q 2769 4750 3195 4129 
Q 3622 3509 3622 2328 
Q 3622 1225 3098 567 
Q 2575 -91 1691 -91 
Q 1453 -91 1209 -44 
Q 966 3 703 97 
z
M 1959 2075 
Q 2384 2075 2632 2365 
Q 2881 2656 2881 3163 
Q 2881 3666 2632 3958 
Q 2384 4250 1959 4250 
Q 1534 4250 1286 3958 
Q 1038 3666 1038 3163 
Q 1038 2656 1286 2365 
Q 1534 2075 1959 2075 
z
" transform="scale(0.015625)"/>
       <path id="DejaVuSans-35" d="M 691 4666 
L 3169 4666 
L 3169 4134 
L 1269 4134 
L 1269 2991 
Q 1406 3038 1543 3061 
Q 1681 3084 1819 3084 
Q 2600 3084 3056 2656 
Q 3513 2228 3513 1497 
Q 3513 744 3044 326 
Q 2575 -91 1722 -91 
Q 1428 -91 1123 -41 
Q 819 9 494 109 
L 494 744 
Q 775 591 1075 516 
Q 1375 441 1709 441 
Q 2250 441 2565 725 
Q 2881 1009 2881 1497 
Q 2881 1984 2565 2268 
Q 2250 2553 1709 2553 
Q 1456 2553 1204 2497 
Q 953 2441 691 2322 
L 691 4666 
z
" transform="scale(0.015625)"/>
      </defs>
      <use xlink:href="#DejaVuSans-74"/>
      <use xlink:href="#DejaVuSans-3d" transform="translate(39.208984 0)"/>
      <use xlink:href="#DejaVuSans-30" transform="translate(122.998047 0)"/>
      <use xlink:href="#DejaVuSans-2e" transform="translate(186.621094 0)"/>
      <use xlink:href="#DejaVuSans-39" transform="translate(218.408203 0)"/>
      <use xlink:href="#DejaVuSans-35" transform="translate(282.03125 0)"/>
      <use xlink:href="#DejaVuSans-73" transform="translate(345.654297 0)"/>
     </g>
    </g>
    <g id="line2d_47">
     <path d="M 907.094182 127.33875 
L 916.094182 127.33875 
L 925.094182 127.33875 
" style="fill: none; stroke: #a25dff; stroke-opacity: 0.7; stroke-width: 2; stroke-linecap: square"/>
    </g>
    <g id="text_23">
     <!-- t=1.11s -->
     <g transform="translate(932.294183 130.48875) scale(0.09 -0.09)">
      <use xlink:href="#DejaVuSans-74"/>
      <use xlink:href="#DejaVuSans-3d" transform="translate(39.208984 0)"/>
      <use xlink:href="#DejaVuSans-31" transform="translate(122.998047 0)"/>
      <use xlink:href="#DejaVuSans-2e" transform="translate(186.621094 0)"/>
      <use xlink:href="#DejaVuSans-31" transform="translate(218.408203 0)"/>
      <use xlink:href="#DejaVuSans-31" transform="translate(282.03125 0)"/>
      <use xlink:href="#DejaVuSans-73" transform="translate(345.654297 0)"/>
     </g>
    </g>
    <g id="line2d_48">
     <path d="M 907.094182 140.549062 
L 916.094182 140.549062 
L 925.094182 140.549062 
" style="fill: none; stroke: #ba45ff; stroke-opacity: 0.7; stroke-width: 2; stroke-linecap: square"/>
    </g>
    <g id="text_24">
     <!-- t=1.27s -->
     <g transform="translate(932.294183 143.699062) scale(0.09 -0.09)">
      <defs>
       <path id="DejaVuSans-37" d="M 525 4666 
L 3525 4666 
L 3525 4397 
L 1831 0 
L 1172 0 
L 2766 4134 
L 525 4134 
L 525 4666 
z
" transform="scale(0.015625)"/>
      </defs>
      <use xlink:href="#DejaVuSans-74"/>
      <use xlink:href="#DejaVuSans-3d" transform="translate(39.208984 0)"/>
      <use xlink:href="#DejaVuSans-31" transform="translate(122.998047 0)"/>
      <use xlink:href="#DejaVuSans-2e" transform="translate(186.621094 0)"/>
      <use xlink:href="#DejaVuSans-32" transform="translate(218.408203 0)"/>
      <use xlink:href="#DejaVuSans-37" transform="translate(282.03125 0)"/>
      <use xlink:href="#DejaVuSans-73" transform="translate(345.654297 0)"/>
     </g>
    </g>
    <g id="line2d_49">
     <path d="M 907.094182 153.759375 
L 916.094182 153.759375 
L 925.094182 153.759375 
" style="fill: none; stroke: #d12eff; stroke-opacity: 0.7; stroke-width: 2; stroke-linecap: square"/>
    </g>
    <g id="text_25">
     <!-- t=1.43s -->
     <g transform="translate(932.294183 156.909375) scale(0.09 -0.09)">
      <use xlink:href="#DejaVuSans-74"/>
      <use xlink:href="#DejaVuSans-3d" transform="translate(39.208984 0)"/>
      <use xlink:href="#DejaVuSans-31" transform="translate(122.998047 0)"/>
      <use xlink:href="#DejaVuSans-2e" transform="translate(186.621094 0)"/>
      <use xlink:href="#DejaVuSans-34" transform="translate(218.408203 0)"/>
      <use xlink:href="#DejaVuSans-33" transform="translate(282.03125 0)"/>
      <use xlink:href="#DejaVuSans-73" transform="translate(345.654297 0)"/>
     </g>
    </g>
    <g id="line2d_50">
     <path d="M 907.094182 166.969687 
L 916.094182 166.969687 
L 925.094182 166.969687 
" style="fill: none; stroke: #e817ff; stroke-opacity: 0.7; stroke-width: 2; stroke-linecap: square"/>
    </g>
    <g id="text_26">
     <!-- t=1.59s -->
     <g transform="translate(932.294183 170.119687) scale(0.09 -0.09)">
      <use xlink:href="#DejaVuSans-74"/>
      <use xlink:href="#DejaVuSans-3d" transform="translate(39.208984 0)"/>
      <use xlink:href="#DejaVuSans-31" transform="translate(122.998047 0)"/>
      <use xlink:href="#DejaVuSans-2e" transform="translate(186.621094 0)"/>
      <use xlink:href="#DejaVuSans-35" transform="translate(218.408203 0)"/>
      <use xlink:href="#DejaVuSans-39" transform="translate(282.03125 0)"/>
      <use xlink:href="#DejaVuSans-73" transform="translate(345.654297 0)"/>
     </g>
    </g>
    <g id="line2d_51">
     <path d="M 907.094182 180.18 
L 916.094182 180.18 
L 925.094182 180.18 
" style="fill: none; stroke: #ff00ff; stroke-opacity: 0.7; stroke-width: 2; stroke-linecap: square"/>
    </g>
    <g id="text_27">
     <!-- t=1.75s -->
     <g transform="translate(932.294183 183.33) scale(0.09 -0.09)">
      <use xlink:href="#DejaVuSans-74"/>
      <use xlink:href="#DejaVuSans-3d" transform="translate(39.208984 0)"/>
      <use xlink:href="#DejaVuSans-31" transform="translate(122.998047 0)"/>
      <use xlink:href="#DejaVuSans-2e" transform="translate(186.621094 0)"/>
      <use xlink:href="#DejaVuSans-37" transform="translate(218.408203 0)"/>
      <use xlink:href="#DejaVuSans-35" transform="translate(282.03125 0)"/>
      <use xlink:href="#DejaVuSans-73" transform="translate(345.654297 0)"/>
     </g>
    </g>
    <g id="line2d_52">
     <path d="M 907.094182 193.390312 
L 916.094182 193.390312 
L 925.094182 193.390312 
" style="fill: none; stroke-dasharray: 5.55,2.4; stroke-dashoffset: 0; stroke: #ff0000; stroke-width: 1.5"/>
    </g>
    <g id="text_28">
     <!-- BC: h(y=0) -->
     <g transform="translate(932.294183 196.540312) scale(0.09 -0.09)">
      <defs>
       <path id="DejaVuSans-42" d="M 1259 2228 
L 1259 519 
L 2272 519 
Q 2781 519 3026 730 
Q 3272 941 3272 1375 
Q 3272 1813 3026 2020 
Q 2781 2228 2272 2228 
L 1259 2228 
z
M 1259 4147 
L 1259 2741 
L 2194 2741 
Q 2656 2741 2882 2914 
Q 3109 3088 3109 3444 
Q 3109 3797 2882 3972 
Q 2656 4147 2194 4147 
L 1259 4147 
z
M 628 4666 
L 2241 4666 
Q 2963 4666 3353 4366 
Q 3744 4066 3744 3513 
Q 3744 3084 3544 2831 
Q 3344 2578 2956 2516 
Q 3422 2416 3680 2098 
Q 3938 1781 3938 1306 
Q 3938 681 3513 340 
Q 3088 0 2303 0 
L 628 0 
L 628 4666 
z
" transform="scale(0.015625)"/>
       <path id="DejaVuSans-43" d="M 4122 4306 
L 4122 3641 
Q 3803 3938 3442 4084 
Q 3081 4231 2675 4231 
Q 1875 4231 1450 3742 
Q 1025 3253 1025 2328 
Q 1025 1406 1450 917 
Q 1875 428 2675 428 
Q 3081 428 3442 575 
Q 3803 722 4122 1019 
L 4122 359 
Q 3791 134 3420 21 
Q 3050 -91 2638 -91 
Q 1578 -91 968 557 
Q 359 1206 359 2328 
Q 359 3453 968 4101 
Q 1578 4750 2638 4750 
Q 3056 4750 3426 4639 
Q 3797 4528 4122 4306 
z
" transform="scale(0.015625)"/>
      </defs>
      <use xlink:href="#DejaVuSans-42"/>
      <use xlink:href="#DejaVuSans-43" transform="translate(66.853516 0)"/>
      <use xlink:href="#DejaVuSans-3a" transform="translate(136.677734 0)"/>
      <use xlink:href="#DejaVuSans-20" transform="translate(170.369141 0)"/>
      <use xlink:href="#DejaVuSans-68" transform="translate(202.15625 0)"/>
      <use xlink:href="#DejaVuSans-28" transform="translate(265.535156 0)"/>
      <use xlink:href="#DejaVuSans-79" transform="translate(304.548828 0)"/>
      <use xlink:href="#DejaVuSans-3d" transform="translate(363.728516 0)"/>
      <use xlink:href="#DejaVuSans-30" transform="translate(447.517578 0)"/>
      <use xlink:href="#DejaVuSans-29" transform="translate(511.140625 0)"/>
     </g>
    </g>
    <g id="line2d_53">
     <path d="M 907.094182 206.600625 
L 916.094182 206.600625 
L 925.094182 206.600625 
" style="fill: none; stroke-dasharray: 5.55,2.4; stroke-dashoffset: 0; stroke: #0000ff; stroke-width: 1.5"/>
    </g>
    <g id="text_29">
     <!-- BC: h(y=1) -->
     <g transform="translate(932.294183 209.750625) scale(0.09 -0.09)">
      <use xlink:href="#DejaVuSans-42"/>
      <use xlink:href="#DejaVuSans-43" transform="translate(66.853516 0)"/>
      <use xlink:href="#DejaVuSans-3a" transform="translate(136.677734 0)"/>
      <use xlink:href="#DejaVuSans-20" transform="translate(170.369141 0)"/>
      <use xlink:href="#DejaVuSans-68" transform="translate(202.15625 0)"/>
      <use xlink:href="#DejaVuSans-28" transform="translate(265.535156 0)"/>
      <use xlink:href="#DejaVuSans-79" transform="translate(304.548828 0)"/>
      <use xlink:href="#DejaVuSans-3d" transform="translate(363.728516 0)"/>
      <use xlink:href="#DejaVuSans-31" transform="translate(447.517578 0)"/>
      <use xlink:href="#DejaVuSans-29" transform="translate(511.140625 0)"/>
     </g>
    </g>
    <g id="line2d_54">
     <path d="M 907.094182 219.810937 
L 916.094182 219.810937 
L 925.094182 219.810937 
" style="fill: none; stroke-dasharray: 1.5,2.475; stroke-dashoffset: 0; stroke: #008000; stroke-width: 1.5"/>
    </g>
    <g id="text_30">
     <!-- IC: h(0)=-0.5 -->
     <g transform="translate(932.294183 222.960937) scale(0.09 -0.09)">
      <defs>
       <path id="DejaVuSans-49" d="M 628 4666 
L 1259 4666 
L 1259 0 
L 628 0 
L 628 4666 
z
" transform="scale(0.015625)"/>
      </defs>
      <use xlink:href="#DejaVuSans-49"/>
      <use xlink:href="#DejaVuSans-43" transform="translate(29.492188 0)"/>
      <use xlink:href="#DejaVuSans-3a" transform="translate(99.316406 0)"/>
      <use xlink:href="#DejaVuSans-20" transform="translate(133.007812 0)"/>
      <use xlink:href="#DejaVuSans-68" transform="translate(164.794922 0)"/>
      <use xlink:href="#DejaVuSans-28" transform="translate(228.173828 0)"/>
      <use xlink:href="#DejaVuSans-30" transform="translate(267.1875 0)"/>
      <use xlink:href="#DejaVuSans-29" transform="translate(330.810547 0)"/>
      <use xlink:href="#DejaVuSans-3d" transform="translate(369.824219 0)"/>
      <use xlink:href="#DejaVuSans-2d" transform="translate(453.613281 0)"/>
      <use xlink:href="#DejaVuSans-30" transform="translate(489.697266 0)"/>
      <use xlink:href="#DejaVuSans-2e" transform="translate(553.320312 0)"/>
      <use xlink:href="#DejaVuSans-35" transform="translate(585.107422 0)"/>
     </g>
    </g>
   </g>
  </g>
 </g>
 <defs>
  <clipPath id="pa11462e5d3">
   <rect x="54.096563" y="23.077969" width="828.331" height="505.72"/>
  </clipPath>
 </defs>
</svg>
